%TF.GenerationSoftware,KiCad,Pcbnew,9.0.2*%
%TF.CreationDate,2025-11-13T14:06:28+01:00*%
%TF.ProjectId,current-meas,63757272-656e-4742-9d6d-6561732e6b69,rev?*%
%TF.SameCoordinates,Original*%
%TF.FileFunction,Copper,L2,Bot*%
%TF.FilePolarity,Positive*%
%FSLAX46Y46*%
G04 Gerber Fmt 4.6, Leading zero omitted, Abs format (unit mm)*
G04 Created by KiCad (PCBNEW 9.0.2) date 2025-11-13 14:06:28*
%MOMM*%
%LPD*%
G01*
G04 APERTURE LIST*
%TA.AperFunction,ComponentPad*%
%ADD10R,1.700000X1.700000*%
%TD*%
%TA.AperFunction,ComponentPad*%
%ADD11C,1.700000*%
%TD*%
%TA.AperFunction,ComponentPad*%
%ADD12C,3.300000*%
%TD*%
%TA.AperFunction,ViaPad*%
%ADD13C,0.700000*%
%TD*%
%TA.AperFunction,ViaPad*%
%ADD14C,0.600000*%
%TD*%
G04 APERTURE END LIST*
D10*
%TO.P,J2,1,Pin_1*%
%TO.N,GND*%
X152232889Y-94395000D03*
D11*
%TO.P,J2,2,Pin_2*%
%TO.N,VCC*%
X149692889Y-94395000D03*
%TO.P,J2,3,Pin_3*%
%TO.N,/ANALOG_OUT*%
X147152889Y-94395000D03*
%TD*%
D12*
%TO.P,J1,1,Pin_1*%
%TO.N,/Vin-*%
X144785389Y-117070000D03*
X144785389Y-127230000D03*
%TO.P,J1,2,Pin_2*%
%TO.N,/Vin+*%
X154945389Y-117070000D03*
X154945389Y-127230000D03*
%TD*%
D13*
%TO.N,GND*%
X155025000Y-94900000D03*
X154417889Y-103420000D03*
X154625000Y-94150000D03*
D14*
X149792889Y-104670000D03*
D13*
X154517889Y-100570000D03*
X155425000Y-94150000D03*
%TD*%
%TA.AperFunction,Conductor*%
%TO.N,GND*%
G36*
X164621385Y-91845696D02*
G01*
X164918792Y-91862396D01*
X164932596Y-91863952D01*
X165222855Y-91913268D01*
X165236398Y-91916359D01*
X165519303Y-91997862D01*
X165532428Y-92002455D01*
X165703407Y-92073276D01*
X165763767Y-92098278D01*
X165804421Y-92115117D01*
X165816943Y-92121146D01*
X165862180Y-92146148D01*
X166074621Y-92263560D01*
X166086395Y-92270958D01*
X166326510Y-92441327D01*
X166337364Y-92449983D01*
X166556894Y-92646166D01*
X166566725Y-92655997D01*
X166589066Y-92680997D01*
X166762908Y-92875525D01*
X166771566Y-92886382D01*
X166941939Y-93126500D01*
X166949332Y-93138266D01*
X167005531Y-93239949D01*
X167079733Y-93374207D01*
X167091743Y-93395936D01*
X167097777Y-93408465D01*
X167210440Y-93680459D01*
X167215033Y-93693584D01*
X167296536Y-93976487D01*
X167299630Y-93990044D01*
X167348945Y-94280286D01*
X167350502Y-94294104D01*
X167367194Y-94591331D01*
X167367389Y-94598284D01*
X167367389Y-130916519D01*
X167367194Y-130923472D01*
X167350491Y-131220893D01*
X167348934Y-131234711D01*
X167299619Y-131524951D01*
X167296525Y-131538508D01*
X167215022Y-131821412D01*
X167210429Y-131834537D01*
X167097768Y-132106526D01*
X167091734Y-132119055D01*
X166949324Y-132376724D01*
X166941927Y-132388497D01*
X166771565Y-132628600D01*
X166762895Y-132639472D01*
X166566719Y-132858993D01*
X166556886Y-132868826D01*
X166337366Y-133065000D01*
X166326494Y-133073670D01*
X166086389Y-133244032D01*
X166074615Y-133251430D01*
X165816943Y-133393840D01*
X165804414Y-133399873D01*
X165532428Y-133512532D01*
X165519303Y-133517125D01*
X165236401Y-133598627D01*
X165222845Y-133601721D01*
X164932602Y-133651035D01*
X164918783Y-133652592D01*
X164621166Y-133669305D01*
X164614321Y-133669500D01*
X164551999Y-133669500D01*
X164551795Y-133669553D01*
X164543604Y-133669561D01*
X164543603Y-133669560D01*
X164543602Y-133669561D01*
X135121419Y-133694496D01*
X135114361Y-133694301D01*
X134816997Y-133677601D01*
X134803179Y-133676044D01*
X134512939Y-133626729D01*
X134499382Y-133623635D01*
X134266252Y-133556471D01*
X134216475Y-133542130D01*
X134203358Y-133537540D01*
X133931365Y-133424876D01*
X133918836Y-133418842D01*
X133661165Y-133276431D01*
X133649391Y-133269033D01*
X133409291Y-133098672D01*
X133398420Y-133090003D01*
X133178899Y-132893827D01*
X133169066Y-132883994D01*
X132972891Y-132664473D01*
X132964221Y-132653601D01*
X132793859Y-132413497D01*
X132786461Y-132401723D01*
X132656070Y-132165798D01*
X132644048Y-132144047D01*
X132638019Y-132131525D01*
X132525358Y-131859535D01*
X132520765Y-131846411D01*
X132439262Y-131563509D01*
X132436168Y-131549952D01*
X132426997Y-131495975D01*
X132386852Y-131259701D01*
X132385298Y-131245902D01*
X132368584Y-130948271D01*
X132368389Y-130941319D01*
X132368389Y-130819038D01*
X133517389Y-130819038D01*
X133517389Y-131070962D01*
X133545096Y-131245893D01*
X133556799Y-131319785D01*
X133634649Y-131559383D01*
X133713302Y-131713747D01*
X133736282Y-131758848D01*
X133749021Y-131783848D01*
X133897090Y-131987649D01*
X133897094Y-131987654D01*
X134075234Y-132165794D01*
X134075239Y-132165798D01*
X134244630Y-132288867D01*
X134279044Y-132313870D01*
X134402402Y-132376724D01*
X134503505Y-132428239D01*
X134503507Y-132428239D01*
X134503510Y-132428241D01*
X134743104Y-132506090D01*
X134991927Y-132545500D01*
X134991928Y-132545500D01*
X135243850Y-132545500D01*
X135243851Y-132545500D01*
X135492674Y-132506090D01*
X135732268Y-132428241D01*
X135956734Y-132313870D01*
X136160545Y-132165793D01*
X136338682Y-131987656D01*
X136486759Y-131783845D01*
X136601130Y-131559379D01*
X136678979Y-131319785D01*
X136718389Y-131070962D01*
X136718389Y-130819038D01*
X136714429Y-130794038D01*
X163017389Y-130794038D01*
X163017389Y-131045962D01*
X163021349Y-131070962D01*
X163056799Y-131294785D01*
X163134649Y-131534383D01*
X163249021Y-131758848D01*
X163397090Y-131962649D01*
X163397094Y-131962654D01*
X163575234Y-132140794D01*
X163575239Y-132140798D01*
X163753006Y-132269952D01*
X163779044Y-132288870D01*
X163922073Y-132361747D01*
X164003505Y-132403239D01*
X164003507Y-132403239D01*
X164003510Y-132403241D01*
X164243104Y-132481090D01*
X164491927Y-132520500D01*
X164491928Y-132520500D01*
X164743850Y-132520500D01*
X164743851Y-132520500D01*
X164992674Y-132481090D01*
X165232268Y-132403241D01*
X165456734Y-132288870D01*
X165660545Y-132140793D01*
X165838682Y-131962656D01*
X165986759Y-131758845D01*
X166101130Y-131534379D01*
X166178979Y-131294785D01*
X166218389Y-131045962D01*
X166218389Y-130794038D01*
X166178979Y-130545215D01*
X166101130Y-130305621D01*
X166101128Y-130305618D01*
X166101128Y-130305616D01*
X166059636Y-130224184D01*
X165986759Y-130081155D01*
X165856850Y-129902350D01*
X165838687Y-129877350D01*
X165838683Y-129877345D01*
X165660543Y-129699205D01*
X165660538Y-129699201D01*
X165456737Y-129551132D01*
X165456736Y-129551131D01*
X165456734Y-129551130D01*
X165386636Y-129515413D01*
X165232272Y-129436760D01*
X164992674Y-129358910D01*
X164743851Y-129319500D01*
X164491927Y-129319500D01*
X164367515Y-129339205D01*
X164243103Y-129358910D01*
X164003505Y-129436760D01*
X163779040Y-129551132D01*
X163575239Y-129699201D01*
X163575234Y-129699205D01*
X163397094Y-129877345D01*
X163397090Y-129877350D01*
X163249021Y-130081151D01*
X163134649Y-130305616D01*
X163056799Y-130545214D01*
X163052839Y-130570215D01*
X163017389Y-130794038D01*
X136714429Y-130794038D01*
X136678979Y-130570215D01*
X136601130Y-130330621D01*
X136601128Y-130330618D01*
X136601128Y-130330616D01*
X136559636Y-130249184D01*
X136486759Y-130106155D01*
X136467841Y-130080117D01*
X136338687Y-129902350D01*
X136338683Y-129902345D01*
X136160543Y-129724205D01*
X136160538Y-129724201D01*
X135956737Y-129576132D01*
X135956736Y-129576131D01*
X135956734Y-129576130D01*
X135886636Y-129540413D01*
X135732272Y-129461760D01*
X135492674Y-129383910D01*
X135334831Y-129358910D01*
X135243851Y-129344500D01*
X134991927Y-129344500D01*
X134900947Y-129358910D01*
X134743103Y-129383910D01*
X134503505Y-129461760D01*
X134279040Y-129576132D01*
X134075239Y-129724201D01*
X134075234Y-129724205D01*
X133897094Y-129902345D01*
X133897090Y-129902350D01*
X133749021Y-130106151D01*
X133634649Y-130330616D01*
X133564922Y-130545214D01*
X133556799Y-130570215D01*
X133517389Y-130819038D01*
X132368389Y-130819038D01*
X132368389Y-127089041D01*
X142634889Y-127089041D01*
X142634889Y-127370958D01*
X142671684Y-127650439D01*
X142744648Y-127922743D01*
X142852524Y-128183179D01*
X142852529Y-128183190D01*
X142993472Y-128427309D01*
X142993477Y-128427317D01*
X143165089Y-128650965D01*
X143165093Y-128650970D01*
X143364418Y-128850295D01*
X143364422Y-128850298D01*
X143364424Y-128850300D01*
X143588072Y-129021912D01*
X143588079Y-129021916D01*
X143832198Y-129162859D01*
X143832203Y-129162861D01*
X143832206Y-129162863D01*
X144092650Y-129270742D01*
X144364947Y-129343704D01*
X144644438Y-129380500D01*
X144644445Y-129380500D01*
X144926333Y-129380500D01*
X144926340Y-129380500D01*
X145205831Y-129343704D01*
X145478128Y-129270742D01*
X145738572Y-129162863D01*
X145982706Y-129021912D01*
X146206354Y-128850300D01*
X146405689Y-128650965D01*
X146577301Y-128427317D01*
X146718252Y-128183183D01*
X146826131Y-127922739D01*
X146899093Y-127650442D01*
X146935889Y-127370951D01*
X146935889Y-127089049D01*
X146935888Y-127089041D01*
X152794889Y-127089041D01*
X152794889Y-127370958D01*
X152831684Y-127650439D01*
X152904648Y-127922743D01*
X153012524Y-128183179D01*
X153012529Y-128183190D01*
X153153472Y-128427309D01*
X153153477Y-128427317D01*
X153325089Y-128650965D01*
X153325093Y-128650970D01*
X153524418Y-128850295D01*
X153524422Y-128850298D01*
X153524424Y-128850300D01*
X153748072Y-129021912D01*
X153748079Y-129021916D01*
X153992198Y-129162859D01*
X153992203Y-129162861D01*
X153992206Y-129162863D01*
X154252650Y-129270742D01*
X154524947Y-129343704D01*
X154804438Y-129380500D01*
X154804445Y-129380500D01*
X155086333Y-129380500D01*
X155086340Y-129380500D01*
X155365831Y-129343704D01*
X155638128Y-129270742D01*
X155898572Y-129162863D01*
X156142706Y-129021912D01*
X156366354Y-128850300D01*
X156565689Y-128650965D01*
X156737301Y-128427317D01*
X156878252Y-128183183D01*
X156986131Y-127922739D01*
X157059093Y-127650442D01*
X157095889Y-127370951D01*
X157095889Y-127089049D01*
X157059093Y-126809558D01*
X156986131Y-126537261D01*
X156878252Y-126276817D01*
X156878250Y-126276814D01*
X156878248Y-126276809D01*
X156737305Y-126032690D01*
X156737301Y-126032683D01*
X156565689Y-125809035D01*
X156565687Y-125809033D01*
X156565684Y-125809029D01*
X156366359Y-125609704D01*
X156366354Y-125609700D01*
X156142706Y-125438088D01*
X156142700Y-125438084D01*
X156142698Y-125438083D01*
X155898579Y-125297140D01*
X155898568Y-125297135D01*
X155638132Y-125189259D01*
X155365828Y-125116295D01*
X155086347Y-125079500D01*
X155086340Y-125079500D01*
X154804438Y-125079500D01*
X154804430Y-125079500D01*
X154524949Y-125116295D01*
X154252645Y-125189259D01*
X153992209Y-125297135D01*
X153992198Y-125297140D01*
X153748079Y-125438083D01*
X153748071Y-125438089D01*
X153524418Y-125609704D01*
X153325093Y-125809029D01*
X153153478Y-126032682D01*
X153153472Y-126032690D01*
X153012529Y-126276809D01*
X153012524Y-126276820D01*
X152904648Y-126537256D01*
X152831684Y-126809560D01*
X152794889Y-127089041D01*
X146935888Y-127089041D01*
X146899093Y-126809558D01*
X146826131Y-126537261D01*
X146718252Y-126276817D01*
X146718250Y-126276814D01*
X146718248Y-126276809D01*
X146577305Y-126032690D01*
X146577301Y-126032683D01*
X146405689Y-125809035D01*
X146405687Y-125809033D01*
X146405684Y-125809029D01*
X146206359Y-125609704D01*
X146206354Y-125609700D01*
X145982706Y-125438088D01*
X145982700Y-125438084D01*
X145982698Y-125438083D01*
X145738579Y-125297140D01*
X145738568Y-125297135D01*
X145478132Y-125189259D01*
X145205828Y-125116295D01*
X144926347Y-125079500D01*
X144926340Y-125079500D01*
X144644438Y-125079500D01*
X144644430Y-125079500D01*
X144364949Y-125116295D01*
X144092645Y-125189259D01*
X143832209Y-125297135D01*
X143832198Y-125297140D01*
X143588079Y-125438083D01*
X143588071Y-125438089D01*
X143364418Y-125609704D01*
X143165093Y-125809029D01*
X142993478Y-126032682D01*
X142993472Y-126032690D01*
X142852529Y-126276809D01*
X142852524Y-126276820D01*
X142744648Y-126537256D01*
X142671684Y-126809560D01*
X142634889Y-127089041D01*
X132368389Y-127089041D01*
X132368389Y-116929041D01*
X142634889Y-116929041D01*
X142634889Y-117210958D01*
X142671684Y-117490439D01*
X142744648Y-117762743D01*
X142852524Y-118023179D01*
X142852529Y-118023190D01*
X142993472Y-118267309D01*
X142993477Y-118267317D01*
X143165089Y-118490965D01*
X143165093Y-118490970D01*
X143364418Y-118690295D01*
X143364422Y-118690298D01*
X143364424Y-118690300D01*
X143588072Y-118861912D01*
X143588079Y-118861916D01*
X143832198Y-119002859D01*
X143832203Y-119002861D01*
X143832206Y-119002863D01*
X144092650Y-119110742D01*
X144364947Y-119183704D01*
X144644438Y-119220500D01*
X144644445Y-119220500D01*
X144926333Y-119220500D01*
X144926340Y-119220500D01*
X145205831Y-119183704D01*
X145478128Y-119110742D01*
X145738572Y-119002863D01*
X145982706Y-118861912D01*
X146206354Y-118690300D01*
X146405689Y-118490965D01*
X146577301Y-118267317D01*
X146718252Y-118023183D01*
X146826131Y-117762739D01*
X146899093Y-117490442D01*
X146935889Y-117210951D01*
X146935889Y-116929049D01*
X146935888Y-116929041D01*
X152794889Y-116929041D01*
X152794889Y-117210958D01*
X152831684Y-117490439D01*
X152904648Y-117762743D01*
X153012524Y-118023179D01*
X153012529Y-118023190D01*
X153153472Y-118267309D01*
X153153477Y-118267317D01*
X153325089Y-118490965D01*
X153325093Y-118490970D01*
X153524418Y-118690295D01*
X153524422Y-118690298D01*
X153524424Y-118690300D01*
X153748072Y-118861912D01*
X153748079Y-118861916D01*
X153992198Y-119002859D01*
X153992203Y-119002861D01*
X153992206Y-119002863D01*
X154252650Y-119110742D01*
X154524947Y-119183704D01*
X154804438Y-119220500D01*
X154804445Y-119220500D01*
X155086333Y-119220500D01*
X155086340Y-119220500D01*
X155365831Y-119183704D01*
X155638128Y-119110742D01*
X155898572Y-119002863D01*
X156142706Y-118861912D01*
X156366354Y-118690300D01*
X156565689Y-118490965D01*
X156737301Y-118267317D01*
X156878252Y-118023183D01*
X156986131Y-117762739D01*
X157059093Y-117490442D01*
X157095889Y-117210951D01*
X157095889Y-116929049D01*
X157059093Y-116649558D01*
X156986131Y-116377261D01*
X156878252Y-116116817D01*
X156878250Y-116116814D01*
X156878248Y-116116809D01*
X156737305Y-115872690D01*
X156737301Y-115872683D01*
X156565689Y-115649035D01*
X156565687Y-115649033D01*
X156565684Y-115649029D01*
X156366359Y-115449704D01*
X156366354Y-115449700D01*
X156142706Y-115278088D01*
X156142700Y-115278084D01*
X156142698Y-115278083D01*
X155898579Y-115137140D01*
X155898568Y-115137135D01*
X155638132Y-115029259D01*
X155365828Y-114956295D01*
X155086347Y-114919500D01*
X155086340Y-114919500D01*
X154804438Y-114919500D01*
X154804430Y-114919500D01*
X154524949Y-114956295D01*
X154252645Y-115029259D01*
X153992209Y-115137135D01*
X153992198Y-115137140D01*
X153748079Y-115278083D01*
X153748071Y-115278089D01*
X153524418Y-115449704D01*
X153325093Y-115649029D01*
X153153478Y-115872682D01*
X153153472Y-115872690D01*
X153012529Y-116116809D01*
X153012524Y-116116820D01*
X152904648Y-116377256D01*
X152831684Y-116649560D01*
X152794889Y-116929041D01*
X146935888Y-116929041D01*
X146899093Y-116649558D01*
X146826131Y-116377261D01*
X146718252Y-116116817D01*
X146718250Y-116116814D01*
X146718248Y-116116809D01*
X146577305Y-115872690D01*
X146577301Y-115872683D01*
X146405689Y-115649035D01*
X146405687Y-115649033D01*
X146405684Y-115649029D01*
X146206359Y-115449704D01*
X146206354Y-115449700D01*
X145982706Y-115278088D01*
X145982700Y-115278084D01*
X145982698Y-115278083D01*
X145738579Y-115137140D01*
X145738568Y-115137135D01*
X145478132Y-115029259D01*
X145205828Y-114956295D01*
X144926347Y-114919500D01*
X144926340Y-114919500D01*
X144644438Y-114919500D01*
X144644430Y-114919500D01*
X144364949Y-114956295D01*
X144092645Y-115029259D01*
X143832209Y-115137135D01*
X143832198Y-115137140D01*
X143588079Y-115278083D01*
X143588071Y-115278089D01*
X143364418Y-115449704D01*
X143165093Y-115649029D01*
X142993478Y-115872682D01*
X142993472Y-115872690D01*
X142852529Y-116116809D01*
X142852524Y-116116820D01*
X142744648Y-116377256D01*
X142671684Y-116649560D01*
X142634889Y-116929041D01*
X132368389Y-116929041D01*
X132368389Y-94623480D01*
X132368584Y-94616527D01*
X132375463Y-94494038D01*
X133517389Y-94494038D01*
X133517389Y-94745962D01*
X133543911Y-94913412D01*
X133556799Y-94994785D01*
X133634649Y-95234383D01*
X133694768Y-95352372D01*
X133736282Y-95433848D01*
X133749021Y-95458848D01*
X133897090Y-95662649D01*
X133897094Y-95662654D01*
X134075234Y-95840794D01*
X134075239Y-95840798D01*
X134244630Y-95963867D01*
X134279044Y-95988870D01*
X134422073Y-96061747D01*
X134503505Y-96103239D01*
X134503507Y-96103239D01*
X134503510Y-96103241D01*
X134743104Y-96181090D01*
X134991927Y-96220500D01*
X134991928Y-96220500D01*
X135243850Y-96220500D01*
X135243851Y-96220500D01*
X135492674Y-96181090D01*
X135732268Y-96103241D01*
X135956734Y-95988870D01*
X136160545Y-95840793D01*
X136338682Y-95662656D01*
X136486759Y-95458845D01*
X136601130Y-95234379D01*
X136678979Y-94994785D01*
X136718389Y-94745962D01*
X136718389Y-94494038D01*
X136685868Y-94288713D01*
X145802389Y-94288713D01*
X145802389Y-94501286D01*
X145835642Y-94711239D01*
X145901333Y-94913414D01*
X145997840Y-95102820D01*
X146122779Y-95274786D01*
X146273102Y-95425109D01*
X146445068Y-95550048D01*
X146445070Y-95550049D01*
X146445073Y-95550051D01*
X146634477Y-95646557D01*
X146836646Y-95712246D01*
X147046602Y-95745500D01*
X147046603Y-95745500D01*
X147259175Y-95745500D01*
X147259176Y-95745500D01*
X147469132Y-95712246D01*
X147671301Y-95646557D01*
X147860705Y-95550051D01*
X147947367Y-95487088D01*
X148032675Y-95425109D01*
X148032677Y-95425106D01*
X148032681Y-95425104D01*
X148182993Y-95274792D01*
X148182995Y-95274788D01*
X148182998Y-95274786D01*
X148307937Y-95102820D01*
X148307936Y-95102820D01*
X148307940Y-95102816D01*
X148312403Y-95094054D01*
X148360377Y-95043259D01*
X148428197Y-95026463D01*
X148494333Y-95048999D01*
X148533375Y-95094056D01*
X148537840Y-95102820D01*
X148662779Y-95274786D01*
X148813102Y-95425109D01*
X148985068Y-95550048D01*
X148985070Y-95550049D01*
X148985073Y-95550051D01*
X149174477Y-95646557D01*
X149376646Y-95712246D01*
X149586602Y-95745500D01*
X149586603Y-95745500D01*
X149799175Y-95745500D01*
X149799176Y-95745500D01*
X150009132Y-95712246D01*
X150211301Y-95646557D01*
X150400705Y-95550051D01*
X150487367Y-95487088D01*
X150572673Y-95425110D01*
X150572673Y-95425109D01*
X150572681Y-95425104D01*
X150686606Y-95311178D01*
X150747925Y-95277696D01*
X150817617Y-95282680D01*
X150873551Y-95324551D01*
X150890466Y-95355528D01*
X150939535Y-95487088D01*
X150939538Y-95487093D01*
X151025698Y-95602187D01*
X151025701Y-95602190D01*
X151140795Y-95688350D01*
X151140802Y-95688354D01*
X151275509Y-95738596D01*
X151275516Y-95738598D01*
X151335044Y-95744999D01*
X151335061Y-95745000D01*
X151982889Y-95745000D01*
X151982889Y-94828012D01*
X152039896Y-94860925D01*
X152167063Y-94895000D01*
X152298715Y-94895000D01*
X152425882Y-94860925D01*
X152482889Y-94828012D01*
X152482889Y-95745000D01*
X153130717Y-95745000D01*
X153130733Y-95744999D01*
X153190261Y-95738598D01*
X153190268Y-95738596D01*
X153324975Y-95688354D01*
X153324982Y-95688350D01*
X153440076Y-95602190D01*
X153440079Y-95602187D01*
X153526239Y-95487093D01*
X153526243Y-95487086D01*
X153576485Y-95352379D01*
X153576487Y-95352372D01*
X153582888Y-95292844D01*
X153582889Y-95292827D01*
X153582889Y-94645000D01*
X152665901Y-94645000D01*
X152698814Y-94587993D01*
X152730689Y-94469038D01*
X163017389Y-94469038D01*
X163017389Y-94720962D01*
X163021349Y-94745962D01*
X163056799Y-94969785D01*
X163134649Y-95209383D01*
X163213302Y-95363747D01*
X163244568Y-95425110D01*
X163249021Y-95433848D01*
X163397090Y-95637649D01*
X163397094Y-95637654D01*
X163575234Y-95815794D01*
X163575239Y-95815798D01*
X163753006Y-95944952D01*
X163779044Y-95963870D01*
X163922073Y-96036747D01*
X164003505Y-96078239D01*
X164003507Y-96078239D01*
X164003510Y-96078241D01*
X164243104Y-96156090D01*
X164491927Y-96195500D01*
X164491928Y-96195500D01*
X164743850Y-96195500D01*
X164743851Y-96195500D01*
X164992674Y-96156090D01*
X165232268Y-96078241D01*
X165456734Y-95963870D01*
X165660545Y-95815793D01*
X165838682Y-95637656D01*
X165986759Y-95433845D01*
X166101130Y-95209379D01*
X166178979Y-94969785D01*
X166218389Y-94720962D01*
X166218389Y-94469038D01*
X166178979Y-94220215D01*
X166101130Y-93980621D01*
X166101128Y-93980618D01*
X166101128Y-93980616D01*
X166057504Y-93895000D01*
X165986759Y-93756155D01*
X165951484Y-93707603D01*
X165838687Y-93552350D01*
X165838683Y-93552345D01*
X165660543Y-93374205D01*
X165660538Y-93374201D01*
X165456737Y-93226132D01*
X165456736Y-93226131D01*
X165456734Y-93226130D01*
X165381525Y-93187809D01*
X165232272Y-93111760D01*
X164992674Y-93033910D01*
X164743851Y-92994500D01*
X164491927Y-92994500D01*
X164367515Y-93014205D01*
X164243103Y-93033910D01*
X164003505Y-93111760D01*
X163779040Y-93226132D01*
X163575239Y-93374201D01*
X163575234Y-93374205D01*
X163397094Y-93552345D01*
X163397090Y-93552350D01*
X163249021Y-93756151D01*
X163134649Y-93980616D01*
X163056799Y-94220214D01*
X163046197Y-94287153D01*
X163017389Y-94469038D01*
X152730689Y-94469038D01*
X152732889Y-94460826D01*
X152732889Y-94329174D01*
X152698814Y-94202007D01*
X152665901Y-94145000D01*
X153582889Y-94145000D01*
X153582889Y-93497172D01*
X153582888Y-93497155D01*
X153576487Y-93437627D01*
X153576485Y-93437620D01*
X153526243Y-93302913D01*
X153526239Y-93302906D01*
X153440079Y-93187812D01*
X153440076Y-93187809D01*
X153324982Y-93101649D01*
X153324975Y-93101645D01*
X153190268Y-93051403D01*
X153190261Y-93051401D01*
X153130733Y-93045000D01*
X152482889Y-93045000D01*
X152482889Y-93961988D01*
X152425882Y-93929075D01*
X152298715Y-93895000D01*
X152167063Y-93895000D01*
X152039896Y-93929075D01*
X151982889Y-93961988D01*
X151982889Y-93045000D01*
X151335044Y-93045000D01*
X151275516Y-93051401D01*
X151275509Y-93051403D01*
X151140802Y-93101645D01*
X151140795Y-93101649D01*
X151025701Y-93187809D01*
X151025698Y-93187812D01*
X150939538Y-93302906D01*
X150939535Y-93302912D01*
X150890466Y-93434471D01*
X150848594Y-93490404D01*
X150783130Y-93514821D01*
X150714857Y-93499969D01*
X150686603Y-93478818D01*
X150572675Y-93364890D01*
X150400709Y-93239951D01*
X150211303Y-93143444D01*
X150211302Y-93143443D01*
X150211301Y-93143443D01*
X150009132Y-93077754D01*
X150009130Y-93077753D01*
X150009129Y-93077753D01*
X149847846Y-93052208D01*
X149799176Y-93044500D01*
X149586602Y-93044500D01*
X149537931Y-93052208D01*
X149376649Y-93077753D01*
X149376646Y-93077754D01*
X149226644Y-93126493D01*
X149174474Y-93143444D01*
X148985068Y-93239951D01*
X148813102Y-93364890D01*
X148662779Y-93515213D01*
X148537838Y-93687182D01*
X148533373Y-93695946D01*
X148485398Y-93746742D01*
X148417577Y-93763536D01*
X148351442Y-93740998D01*
X148312405Y-93695946D01*
X148307939Y-93687182D01*
X148182998Y-93515213D01*
X148032675Y-93364890D01*
X147860709Y-93239951D01*
X147671303Y-93143444D01*
X147671302Y-93143443D01*
X147671301Y-93143443D01*
X147469132Y-93077754D01*
X147469130Y-93077753D01*
X147469129Y-93077753D01*
X147307846Y-93052208D01*
X147259176Y-93044500D01*
X147046602Y-93044500D01*
X146997931Y-93052208D01*
X146836649Y-93077753D01*
X146836646Y-93077754D01*
X146686644Y-93126493D01*
X146634474Y-93143444D01*
X146445068Y-93239951D01*
X146273102Y-93364890D01*
X146122779Y-93515213D01*
X145997840Y-93687179D01*
X145901333Y-93876585D01*
X145835642Y-94078760D01*
X145802389Y-94288713D01*
X136685868Y-94288713D01*
X136678979Y-94245215D01*
X136601130Y-94005621D01*
X136601128Y-94005618D01*
X136601128Y-94005616D01*
X136535383Y-93876585D01*
X136486759Y-93781155D01*
X136436440Y-93711896D01*
X136338687Y-93577350D01*
X136338683Y-93577345D01*
X136160543Y-93399205D01*
X136160538Y-93399201D01*
X135956737Y-93251132D01*
X135956736Y-93251131D01*
X135956734Y-93251130D01*
X135886636Y-93215413D01*
X135732272Y-93136760D01*
X135492674Y-93058910D01*
X135404850Y-93045000D01*
X135243851Y-93019500D01*
X134991927Y-93019500D01*
X134900947Y-93033910D01*
X134743103Y-93058910D01*
X134503505Y-93136760D01*
X134279040Y-93251132D01*
X134075239Y-93399201D01*
X134075234Y-93399205D01*
X133897094Y-93577345D01*
X133897090Y-93577350D01*
X133749021Y-93781151D01*
X133634649Y-94005616D01*
X133556799Y-94245214D01*
X133549056Y-94294104D01*
X133517389Y-94494038D01*
X132375463Y-94494038D01*
X132376127Y-94482213D01*
X132376127Y-94482212D01*
X132384721Y-94329174D01*
X132385287Y-94319096D01*
X132386841Y-94305297D01*
X132436160Y-94015033D01*
X132439248Y-94001501D01*
X132520757Y-93718575D01*
X132525347Y-93705462D01*
X132534816Y-93682602D01*
X132638012Y-93433460D01*
X132644034Y-93420954D01*
X132786455Y-93163264D01*
X132793850Y-93151496D01*
X132964226Y-92911372D01*
X132972867Y-92900536D01*
X133169068Y-92680986D01*
X133178880Y-92671174D01*
X133398431Y-92474971D01*
X133409263Y-92466333D01*
X133649404Y-92295943D01*
X133661150Y-92288563D01*
X133918845Y-92146139D01*
X133931339Y-92140122D01*
X134203370Y-92027442D01*
X134216455Y-92022863D01*
X134499397Y-91941348D01*
X134512918Y-91938263D01*
X134803188Y-91888942D01*
X134816986Y-91887388D01*
X135114210Y-91870695D01*
X135121052Y-91870500D01*
X135183783Y-91870500D01*
X135183990Y-91870444D01*
X164614396Y-91845502D01*
X164621385Y-91845696D01*
G37*
%TD.AperFunction*%
%TD*%
M02*
