%TF.GenerationSoftware,KiCad,Pcbnew,9.0.2*%
%TF.CreationDate,2025-11-13T14:06:28+01:00*%
%TF.ProjectId,current-meas,63757272-656e-4742-9d6d-6561732e6b69,rev?*%
%TF.SameCoordinates,Original*%
%TF.FileFunction,Legend,Bot*%
%TF.FilePolarity,Positive*%
%FSLAX46Y46*%
G04 Gerber Fmt 4.6, Leading zero omitted, Abs format (unit mm)*
G04 Created by KiCad (PCBNEW 9.0.2) date 2025-11-13 14:06:28*
%MOMM*%
%LPD*%
G01*
G04 APERTURE LIST*
%ADD10C,0.100000*%
G04 APERTURE END LIST*
D10*
X136878371Y-108189598D02*
X136830752Y-108141979D01*
X136830752Y-108141979D02*
X136687895Y-108046741D01*
X136687895Y-108046741D02*
X136592657Y-107999122D01*
X136592657Y-107999122D02*
X136449800Y-107951503D01*
X136449800Y-107951503D02*
X136211704Y-107903884D01*
X136211704Y-107903884D02*
X136021228Y-107903884D01*
X136021228Y-107903884D02*
X135783133Y-107951503D01*
X135783133Y-107951503D02*
X135640276Y-107999122D01*
X135640276Y-107999122D02*
X135545038Y-108046741D01*
X135545038Y-108046741D02*
X135402180Y-108141979D01*
X135402180Y-108141979D02*
X135354561Y-108189598D01*
X135497419Y-108427694D02*
X136497419Y-108761027D01*
X136497419Y-108761027D02*
X135497419Y-109094360D01*
X136497419Y-109427694D02*
X135830752Y-109427694D01*
X135925990Y-109427694D02*
X135878371Y-109475313D01*
X135878371Y-109475313D02*
X135830752Y-109570551D01*
X135830752Y-109570551D02*
X135830752Y-109713408D01*
X135830752Y-109713408D02*
X135878371Y-109808646D01*
X135878371Y-109808646D02*
X135973609Y-109856265D01*
X135973609Y-109856265D02*
X136497419Y-109856265D01*
X135973609Y-109856265D02*
X135878371Y-109903884D01*
X135878371Y-109903884D02*
X135830752Y-109999122D01*
X135830752Y-109999122D02*
X135830752Y-110141979D01*
X135830752Y-110141979D02*
X135878371Y-110237218D01*
X135878371Y-110237218D02*
X135973609Y-110284837D01*
X135973609Y-110284837D02*
X136497419Y-110284837D01*
X136497419Y-111189598D02*
X135973609Y-111189598D01*
X135973609Y-111189598D02*
X135878371Y-111141979D01*
X135878371Y-111141979D02*
X135830752Y-111046741D01*
X135830752Y-111046741D02*
X135830752Y-110856265D01*
X135830752Y-110856265D02*
X135878371Y-110761027D01*
X136449800Y-111189598D02*
X136497419Y-111094360D01*
X136497419Y-111094360D02*
X136497419Y-110856265D01*
X136497419Y-110856265D02*
X136449800Y-110761027D01*
X136449800Y-110761027D02*
X136354561Y-110713408D01*
X136354561Y-110713408D02*
X136259323Y-110713408D01*
X136259323Y-110713408D02*
X136164085Y-110761027D01*
X136164085Y-110761027D02*
X136116466Y-110856265D01*
X136116466Y-110856265D02*
X136116466Y-111094360D01*
X136116466Y-111094360D02*
X136068847Y-111189598D01*
X136497419Y-111570551D02*
X135830752Y-112094360D01*
X135830752Y-111570551D02*
X136497419Y-112094360D01*
X135973609Y-113237218D02*
X135973609Y-113999123D01*
X136259323Y-113999123D02*
X136259323Y-113237218D01*
X135497419Y-115094361D02*
X136497419Y-115427694D01*
X136497419Y-115427694D02*
X135497419Y-115761027D01*
X136402180Y-116665789D02*
X136449800Y-116618170D01*
X136449800Y-116618170D02*
X136497419Y-116475313D01*
X136497419Y-116475313D02*
X136497419Y-116380075D01*
X136497419Y-116380075D02*
X136449800Y-116237218D01*
X136449800Y-116237218D02*
X136354561Y-116141980D01*
X136354561Y-116141980D02*
X136259323Y-116094361D01*
X136259323Y-116094361D02*
X136068847Y-116046742D01*
X136068847Y-116046742D02*
X135925990Y-116046742D01*
X135925990Y-116046742D02*
X135735514Y-116094361D01*
X135735514Y-116094361D02*
X135640276Y-116141980D01*
X135640276Y-116141980D02*
X135545038Y-116237218D01*
X135545038Y-116237218D02*
X135497419Y-116380075D01*
X135497419Y-116380075D02*
X135497419Y-116475313D01*
X135497419Y-116475313D02*
X135545038Y-116618170D01*
X135545038Y-116618170D02*
X135592657Y-116665789D01*
X136402180Y-117665789D02*
X136449800Y-117618170D01*
X136449800Y-117618170D02*
X136497419Y-117475313D01*
X136497419Y-117475313D02*
X136497419Y-117380075D01*
X136497419Y-117380075D02*
X136449800Y-117237218D01*
X136449800Y-117237218D02*
X136354561Y-117141980D01*
X136354561Y-117141980D02*
X136259323Y-117094361D01*
X136259323Y-117094361D02*
X136068847Y-117046742D01*
X136068847Y-117046742D02*
X135925990Y-117046742D01*
X135925990Y-117046742D02*
X135735514Y-117094361D01*
X135735514Y-117094361D02*
X135640276Y-117141980D01*
X135640276Y-117141980D02*
X135545038Y-117237218D01*
X135545038Y-117237218D02*
X135497419Y-117380075D01*
X135497419Y-117380075D02*
X135497419Y-117475313D01*
X135497419Y-117475313D02*
X135545038Y-117618170D01*
X135545038Y-117618170D02*
X135592657Y-117665789D01*
X136878371Y-117999123D02*
X136830752Y-118046742D01*
X136830752Y-118046742D02*
X136687895Y-118141980D01*
X136687895Y-118141980D02*
X136592657Y-118189599D01*
X136592657Y-118189599D02*
X136449800Y-118237218D01*
X136449800Y-118237218D02*
X136211704Y-118284837D01*
X136211704Y-118284837D02*
X136021228Y-118284837D01*
X136021228Y-118284837D02*
X135783133Y-118237218D01*
X135783133Y-118237218D02*
X135640276Y-118189599D01*
X135640276Y-118189599D02*
X135545038Y-118141980D01*
X135545038Y-118141980D02*
X135402180Y-118046742D01*
X135402180Y-118046742D02*
X135354561Y-117999123D01*
X149222419Y-96461027D02*
X150222419Y-96794360D01*
X150222419Y-96794360D02*
X149222419Y-97127693D01*
X150127180Y-98032455D02*
X150174800Y-97984836D01*
X150174800Y-97984836D02*
X150222419Y-97841979D01*
X150222419Y-97841979D02*
X150222419Y-97746741D01*
X150222419Y-97746741D02*
X150174800Y-97603884D01*
X150174800Y-97603884D02*
X150079561Y-97508646D01*
X150079561Y-97508646D02*
X149984323Y-97461027D01*
X149984323Y-97461027D02*
X149793847Y-97413408D01*
X149793847Y-97413408D02*
X149650990Y-97413408D01*
X149650990Y-97413408D02*
X149460514Y-97461027D01*
X149460514Y-97461027D02*
X149365276Y-97508646D01*
X149365276Y-97508646D02*
X149270038Y-97603884D01*
X149270038Y-97603884D02*
X149222419Y-97746741D01*
X149222419Y-97746741D02*
X149222419Y-97841979D01*
X149222419Y-97841979D02*
X149270038Y-97984836D01*
X149270038Y-97984836D02*
X149317657Y-98032455D01*
X150127180Y-99032455D02*
X150174800Y-98984836D01*
X150174800Y-98984836D02*
X150222419Y-98841979D01*
X150222419Y-98841979D02*
X150222419Y-98746741D01*
X150222419Y-98746741D02*
X150174800Y-98603884D01*
X150174800Y-98603884D02*
X150079561Y-98508646D01*
X150079561Y-98508646D02*
X149984323Y-98461027D01*
X149984323Y-98461027D02*
X149793847Y-98413408D01*
X149793847Y-98413408D02*
X149650990Y-98413408D01*
X149650990Y-98413408D02*
X149460514Y-98461027D01*
X149460514Y-98461027D02*
X149365276Y-98508646D01*
X149365276Y-98508646D02*
X149270038Y-98603884D01*
X149270038Y-98603884D02*
X149222419Y-98746741D01*
X149222419Y-98746741D02*
X149222419Y-98841979D01*
X149222419Y-98841979D02*
X149270038Y-98984836D01*
X149270038Y-98984836D02*
X149317657Y-99032455D01*
X133502180Y-102775312D02*
X133549800Y-102727693D01*
X133549800Y-102727693D02*
X133597419Y-102584836D01*
X133597419Y-102584836D02*
X133597419Y-102489598D01*
X133597419Y-102489598D02*
X133549800Y-102346741D01*
X133549800Y-102346741D02*
X133454561Y-102251503D01*
X133454561Y-102251503D02*
X133359323Y-102203884D01*
X133359323Y-102203884D02*
X133168847Y-102156265D01*
X133168847Y-102156265D02*
X133025990Y-102156265D01*
X133025990Y-102156265D02*
X132835514Y-102203884D01*
X132835514Y-102203884D02*
X132740276Y-102251503D01*
X132740276Y-102251503D02*
X132645038Y-102346741D01*
X132645038Y-102346741D02*
X132597419Y-102489598D01*
X132597419Y-102489598D02*
X132597419Y-102584836D01*
X132597419Y-102584836D02*
X132645038Y-102727693D01*
X132645038Y-102727693D02*
X132692657Y-102775312D01*
X132930752Y-103632455D02*
X133597419Y-103632455D01*
X132930752Y-103203884D02*
X133454561Y-103203884D01*
X133454561Y-103203884D02*
X133549800Y-103251503D01*
X133549800Y-103251503D02*
X133597419Y-103346741D01*
X133597419Y-103346741D02*
X133597419Y-103489598D01*
X133597419Y-103489598D02*
X133549800Y-103584836D01*
X133549800Y-103584836D02*
X133502180Y-103632455D01*
X133597419Y-104108646D02*
X132930752Y-104108646D01*
X133121228Y-104108646D02*
X133025990Y-104156265D01*
X133025990Y-104156265D02*
X132978371Y-104203884D01*
X132978371Y-104203884D02*
X132930752Y-104299122D01*
X132930752Y-104299122D02*
X132930752Y-104394360D01*
X133597419Y-104727694D02*
X132930752Y-104727694D01*
X133121228Y-104727694D02*
X133025990Y-104775313D01*
X133025990Y-104775313D02*
X132978371Y-104822932D01*
X132978371Y-104822932D02*
X132930752Y-104918170D01*
X132930752Y-104918170D02*
X132930752Y-105013408D01*
X133549800Y-105727694D02*
X133597419Y-105632456D01*
X133597419Y-105632456D02*
X133597419Y-105441980D01*
X133597419Y-105441980D02*
X133549800Y-105346742D01*
X133549800Y-105346742D02*
X133454561Y-105299123D01*
X133454561Y-105299123D02*
X133073609Y-105299123D01*
X133073609Y-105299123D02*
X132978371Y-105346742D01*
X132978371Y-105346742D02*
X132930752Y-105441980D01*
X132930752Y-105441980D02*
X132930752Y-105632456D01*
X132930752Y-105632456D02*
X132978371Y-105727694D01*
X132978371Y-105727694D02*
X133073609Y-105775313D01*
X133073609Y-105775313D02*
X133168847Y-105775313D01*
X133168847Y-105775313D02*
X133264085Y-105299123D01*
X132930752Y-106203885D02*
X133597419Y-106203885D01*
X133025990Y-106203885D02*
X132978371Y-106251504D01*
X132978371Y-106251504D02*
X132930752Y-106346742D01*
X132930752Y-106346742D02*
X132930752Y-106489599D01*
X132930752Y-106489599D02*
X132978371Y-106584837D01*
X132978371Y-106584837D02*
X133073609Y-106632456D01*
X133073609Y-106632456D02*
X133597419Y-106632456D01*
X132930752Y-106965790D02*
X132930752Y-107346742D01*
X132597419Y-107108647D02*
X133454561Y-107108647D01*
X133454561Y-107108647D02*
X133549800Y-107156266D01*
X133549800Y-107156266D02*
X133597419Y-107251504D01*
X133597419Y-107251504D02*
X133597419Y-107346742D01*
X133597419Y-108441981D02*
X132930752Y-108441981D01*
X133025990Y-108441981D02*
X132978371Y-108489600D01*
X132978371Y-108489600D02*
X132930752Y-108584838D01*
X132930752Y-108584838D02*
X132930752Y-108727695D01*
X132930752Y-108727695D02*
X132978371Y-108822933D01*
X132978371Y-108822933D02*
X133073609Y-108870552D01*
X133073609Y-108870552D02*
X133597419Y-108870552D01*
X133073609Y-108870552D02*
X132978371Y-108918171D01*
X132978371Y-108918171D02*
X132930752Y-109013409D01*
X132930752Y-109013409D02*
X132930752Y-109156266D01*
X132930752Y-109156266D02*
X132978371Y-109251505D01*
X132978371Y-109251505D02*
X133073609Y-109299124D01*
X133073609Y-109299124D02*
X133597419Y-109299124D01*
X133549800Y-110156266D02*
X133597419Y-110061028D01*
X133597419Y-110061028D02*
X133597419Y-109870552D01*
X133597419Y-109870552D02*
X133549800Y-109775314D01*
X133549800Y-109775314D02*
X133454561Y-109727695D01*
X133454561Y-109727695D02*
X133073609Y-109727695D01*
X133073609Y-109727695D02*
X132978371Y-109775314D01*
X132978371Y-109775314D02*
X132930752Y-109870552D01*
X132930752Y-109870552D02*
X132930752Y-110061028D01*
X132930752Y-110061028D02*
X132978371Y-110156266D01*
X132978371Y-110156266D02*
X133073609Y-110203885D01*
X133073609Y-110203885D02*
X133168847Y-110203885D01*
X133168847Y-110203885D02*
X133264085Y-109727695D01*
X133597419Y-111061028D02*
X133073609Y-111061028D01*
X133073609Y-111061028D02*
X132978371Y-111013409D01*
X132978371Y-111013409D02*
X132930752Y-110918171D01*
X132930752Y-110918171D02*
X132930752Y-110727695D01*
X132930752Y-110727695D02*
X132978371Y-110632457D01*
X133549800Y-111061028D02*
X133597419Y-110965790D01*
X133597419Y-110965790D02*
X133597419Y-110727695D01*
X133597419Y-110727695D02*
X133549800Y-110632457D01*
X133549800Y-110632457D02*
X133454561Y-110584838D01*
X133454561Y-110584838D02*
X133359323Y-110584838D01*
X133359323Y-110584838D02*
X133264085Y-110632457D01*
X133264085Y-110632457D02*
X133216466Y-110727695D01*
X133216466Y-110727695D02*
X133216466Y-110965790D01*
X133216466Y-110965790D02*
X133168847Y-111061028D01*
X133549800Y-111489600D02*
X133597419Y-111584838D01*
X133597419Y-111584838D02*
X133597419Y-111775314D01*
X133597419Y-111775314D02*
X133549800Y-111870552D01*
X133549800Y-111870552D02*
X133454561Y-111918171D01*
X133454561Y-111918171D02*
X133406942Y-111918171D01*
X133406942Y-111918171D02*
X133311704Y-111870552D01*
X133311704Y-111870552D02*
X133264085Y-111775314D01*
X133264085Y-111775314D02*
X133264085Y-111632457D01*
X133264085Y-111632457D02*
X133216466Y-111537219D01*
X133216466Y-111537219D02*
X133121228Y-111489600D01*
X133121228Y-111489600D02*
X133073609Y-111489600D01*
X133073609Y-111489600D02*
X132978371Y-111537219D01*
X132978371Y-111537219D02*
X132930752Y-111632457D01*
X132930752Y-111632457D02*
X132930752Y-111775314D01*
X132930752Y-111775314D02*
X132978371Y-111870552D01*
X132930752Y-112775314D02*
X133597419Y-112775314D01*
X132930752Y-112346743D02*
X133454561Y-112346743D01*
X133454561Y-112346743D02*
X133549800Y-112394362D01*
X133549800Y-112394362D02*
X133597419Y-112489600D01*
X133597419Y-112489600D02*
X133597419Y-112632457D01*
X133597419Y-112632457D02*
X133549800Y-112727695D01*
X133549800Y-112727695D02*
X133502180Y-112775314D01*
X133597419Y-113251505D02*
X132930752Y-113251505D01*
X133121228Y-113251505D02*
X133025990Y-113299124D01*
X133025990Y-113299124D02*
X132978371Y-113346743D01*
X132978371Y-113346743D02*
X132930752Y-113441981D01*
X132930752Y-113441981D02*
X132930752Y-113537219D01*
X133549800Y-114251505D02*
X133597419Y-114156267D01*
X133597419Y-114156267D02*
X133597419Y-113965791D01*
X133597419Y-113965791D02*
X133549800Y-113870553D01*
X133549800Y-113870553D02*
X133454561Y-113822934D01*
X133454561Y-113822934D02*
X133073609Y-113822934D01*
X133073609Y-113822934D02*
X132978371Y-113870553D01*
X132978371Y-113870553D02*
X132930752Y-113965791D01*
X132930752Y-113965791D02*
X132930752Y-114156267D01*
X132930752Y-114156267D02*
X132978371Y-114251505D01*
X132978371Y-114251505D02*
X133073609Y-114299124D01*
X133073609Y-114299124D02*
X133168847Y-114299124D01*
X133168847Y-114299124D02*
X133264085Y-113822934D01*
X133597419Y-114727696D02*
X132930752Y-114727696D01*
X133025990Y-114727696D02*
X132978371Y-114775315D01*
X132978371Y-114775315D02*
X132930752Y-114870553D01*
X132930752Y-114870553D02*
X132930752Y-115013410D01*
X132930752Y-115013410D02*
X132978371Y-115108648D01*
X132978371Y-115108648D02*
X133073609Y-115156267D01*
X133073609Y-115156267D02*
X133597419Y-115156267D01*
X133073609Y-115156267D02*
X132978371Y-115203886D01*
X132978371Y-115203886D02*
X132930752Y-115299124D01*
X132930752Y-115299124D02*
X132930752Y-115441981D01*
X132930752Y-115441981D02*
X132978371Y-115537220D01*
X132978371Y-115537220D02*
X133073609Y-115584839D01*
X133073609Y-115584839D02*
X133597419Y-115584839D01*
X133549800Y-116441981D02*
X133597419Y-116346743D01*
X133597419Y-116346743D02*
X133597419Y-116156267D01*
X133597419Y-116156267D02*
X133549800Y-116061029D01*
X133549800Y-116061029D02*
X133454561Y-116013410D01*
X133454561Y-116013410D02*
X133073609Y-116013410D01*
X133073609Y-116013410D02*
X132978371Y-116061029D01*
X132978371Y-116061029D02*
X132930752Y-116156267D01*
X132930752Y-116156267D02*
X132930752Y-116346743D01*
X132930752Y-116346743D02*
X132978371Y-116441981D01*
X132978371Y-116441981D02*
X133073609Y-116489600D01*
X133073609Y-116489600D02*
X133168847Y-116489600D01*
X133168847Y-116489600D02*
X133264085Y-116013410D01*
X132930752Y-116918172D02*
X133597419Y-116918172D01*
X133025990Y-116918172D02*
X132978371Y-116965791D01*
X132978371Y-116965791D02*
X132930752Y-117061029D01*
X132930752Y-117061029D02*
X132930752Y-117203886D01*
X132930752Y-117203886D02*
X132978371Y-117299124D01*
X132978371Y-117299124D02*
X133073609Y-117346743D01*
X133073609Y-117346743D02*
X133597419Y-117346743D01*
X132930752Y-117680077D02*
X132930752Y-118061029D01*
X132597419Y-117822934D02*
X133454561Y-117822934D01*
X133454561Y-117822934D02*
X133549800Y-117870553D01*
X133549800Y-117870553D02*
X133597419Y-117965791D01*
X133597419Y-117965791D02*
X133597419Y-118061029D01*
X133597419Y-119156268D02*
X132597419Y-119156268D01*
X132978371Y-119156268D02*
X132930752Y-119251506D01*
X132930752Y-119251506D02*
X132930752Y-119441982D01*
X132930752Y-119441982D02*
X132978371Y-119537220D01*
X132978371Y-119537220D02*
X133025990Y-119584839D01*
X133025990Y-119584839D02*
X133121228Y-119632458D01*
X133121228Y-119632458D02*
X133406942Y-119632458D01*
X133406942Y-119632458D02*
X133502180Y-119584839D01*
X133502180Y-119584839D02*
X133549800Y-119537220D01*
X133549800Y-119537220D02*
X133597419Y-119441982D01*
X133597419Y-119441982D02*
X133597419Y-119251506D01*
X133597419Y-119251506D02*
X133549800Y-119156268D01*
X133597419Y-120203887D02*
X133549800Y-120108649D01*
X133549800Y-120108649D02*
X133502180Y-120061030D01*
X133502180Y-120061030D02*
X133406942Y-120013411D01*
X133406942Y-120013411D02*
X133121228Y-120013411D01*
X133121228Y-120013411D02*
X133025990Y-120061030D01*
X133025990Y-120061030D02*
X132978371Y-120108649D01*
X132978371Y-120108649D02*
X132930752Y-120203887D01*
X132930752Y-120203887D02*
X132930752Y-120346744D01*
X132930752Y-120346744D02*
X132978371Y-120441982D01*
X132978371Y-120441982D02*
X133025990Y-120489601D01*
X133025990Y-120489601D02*
X133121228Y-120537220D01*
X133121228Y-120537220D02*
X133406942Y-120537220D01*
X133406942Y-120537220D02*
X133502180Y-120489601D01*
X133502180Y-120489601D02*
X133549800Y-120441982D01*
X133549800Y-120441982D02*
X133597419Y-120346744D01*
X133597419Y-120346744D02*
X133597419Y-120203887D01*
X133597419Y-121394363D02*
X133073609Y-121394363D01*
X133073609Y-121394363D02*
X132978371Y-121346744D01*
X132978371Y-121346744D02*
X132930752Y-121251506D01*
X132930752Y-121251506D02*
X132930752Y-121061030D01*
X132930752Y-121061030D02*
X132978371Y-120965792D01*
X133549800Y-121394363D02*
X133597419Y-121299125D01*
X133597419Y-121299125D02*
X133597419Y-121061030D01*
X133597419Y-121061030D02*
X133549800Y-120965792D01*
X133549800Y-120965792D02*
X133454561Y-120918173D01*
X133454561Y-120918173D02*
X133359323Y-120918173D01*
X133359323Y-120918173D02*
X133264085Y-120965792D01*
X133264085Y-120965792D02*
X133216466Y-121061030D01*
X133216466Y-121061030D02*
X133216466Y-121299125D01*
X133216466Y-121299125D02*
X133168847Y-121394363D01*
X133597419Y-121870554D02*
X132930752Y-121870554D01*
X133121228Y-121870554D02*
X133025990Y-121918173D01*
X133025990Y-121918173D02*
X132978371Y-121965792D01*
X132978371Y-121965792D02*
X132930752Y-122061030D01*
X132930752Y-122061030D02*
X132930752Y-122156268D01*
X133597419Y-122918173D02*
X132597419Y-122918173D01*
X133549800Y-122918173D02*
X133597419Y-122822935D01*
X133597419Y-122822935D02*
X133597419Y-122632459D01*
X133597419Y-122632459D02*
X133549800Y-122537221D01*
X133549800Y-122537221D02*
X133502180Y-122489602D01*
X133502180Y-122489602D02*
X133406942Y-122441983D01*
X133406942Y-122441983D02*
X133121228Y-122441983D01*
X133121228Y-122441983D02*
X133025990Y-122489602D01*
X133025990Y-122489602D02*
X132978371Y-122537221D01*
X132978371Y-122537221D02*
X132930752Y-122632459D01*
X132930752Y-122632459D02*
X132930752Y-122822935D01*
X132930752Y-122822935D02*
X132978371Y-122918173D01*
X147311704Y-96681265D02*
X147311704Y-97157455D01*
X147597419Y-96586027D02*
X146597419Y-96919360D01*
X146597419Y-96919360D02*
X147597419Y-97252693D01*
X147597419Y-97586027D02*
X146597419Y-97586027D01*
X146597419Y-97586027D02*
X147597419Y-98157455D01*
X147597419Y-98157455D02*
X146597419Y-98157455D01*
X147311704Y-98586027D02*
X147311704Y-99062217D01*
X147597419Y-98490789D02*
X146597419Y-98824122D01*
X146597419Y-98824122D02*
X147597419Y-99157455D01*
X147597419Y-99966979D02*
X147597419Y-99490789D01*
X147597419Y-99490789D02*
X146597419Y-99490789D01*
X146597419Y-100490789D02*
X146597419Y-100681265D01*
X146597419Y-100681265D02*
X146645038Y-100776503D01*
X146645038Y-100776503D02*
X146740276Y-100871741D01*
X146740276Y-100871741D02*
X146930752Y-100919360D01*
X146930752Y-100919360D02*
X147264085Y-100919360D01*
X147264085Y-100919360D02*
X147454561Y-100871741D01*
X147454561Y-100871741D02*
X147549800Y-100776503D01*
X147549800Y-100776503D02*
X147597419Y-100681265D01*
X147597419Y-100681265D02*
X147597419Y-100490789D01*
X147597419Y-100490789D02*
X147549800Y-100395551D01*
X147549800Y-100395551D02*
X147454561Y-100300313D01*
X147454561Y-100300313D02*
X147264085Y-100252694D01*
X147264085Y-100252694D02*
X146930752Y-100252694D01*
X146930752Y-100252694D02*
X146740276Y-100300313D01*
X146740276Y-100300313D02*
X146645038Y-100395551D01*
X146645038Y-100395551D02*
X146597419Y-100490789D01*
X146645038Y-101871741D02*
X146597419Y-101776503D01*
X146597419Y-101776503D02*
X146597419Y-101633646D01*
X146597419Y-101633646D02*
X146645038Y-101490789D01*
X146645038Y-101490789D02*
X146740276Y-101395551D01*
X146740276Y-101395551D02*
X146835514Y-101347932D01*
X146835514Y-101347932D02*
X147025990Y-101300313D01*
X147025990Y-101300313D02*
X147168847Y-101300313D01*
X147168847Y-101300313D02*
X147359323Y-101347932D01*
X147359323Y-101347932D02*
X147454561Y-101395551D01*
X147454561Y-101395551D02*
X147549800Y-101490789D01*
X147549800Y-101490789D02*
X147597419Y-101633646D01*
X147597419Y-101633646D02*
X147597419Y-101728884D01*
X147597419Y-101728884D02*
X147549800Y-101871741D01*
X147549800Y-101871741D02*
X147502180Y-101919360D01*
X147502180Y-101919360D02*
X147168847Y-101919360D01*
X147168847Y-101919360D02*
X147168847Y-101728884D01*
X151945038Y-97077693D02*
X151897419Y-96982455D01*
X151897419Y-96982455D02*
X151897419Y-96839598D01*
X151897419Y-96839598D02*
X151945038Y-96696741D01*
X151945038Y-96696741D02*
X152040276Y-96601503D01*
X152040276Y-96601503D02*
X152135514Y-96553884D01*
X152135514Y-96553884D02*
X152325990Y-96506265D01*
X152325990Y-96506265D02*
X152468847Y-96506265D01*
X152468847Y-96506265D02*
X152659323Y-96553884D01*
X152659323Y-96553884D02*
X152754561Y-96601503D01*
X152754561Y-96601503D02*
X152849800Y-96696741D01*
X152849800Y-96696741D02*
X152897419Y-96839598D01*
X152897419Y-96839598D02*
X152897419Y-96934836D01*
X152897419Y-96934836D02*
X152849800Y-97077693D01*
X152849800Y-97077693D02*
X152802180Y-97125312D01*
X152802180Y-97125312D02*
X152468847Y-97125312D01*
X152468847Y-97125312D02*
X152468847Y-96934836D01*
X152897419Y-97553884D02*
X151897419Y-97553884D01*
X151897419Y-97553884D02*
X152897419Y-98125312D01*
X152897419Y-98125312D02*
X151897419Y-98125312D01*
X152897419Y-98601503D02*
X151897419Y-98601503D01*
X151897419Y-98601503D02*
X151897419Y-98839598D01*
X151897419Y-98839598D02*
X151945038Y-98982455D01*
X151945038Y-98982455D02*
X152040276Y-99077693D01*
X152040276Y-99077693D02*
X152135514Y-99125312D01*
X152135514Y-99125312D02*
X152325990Y-99172931D01*
X152325990Y-99172931D02*
X152468847Y-99172931D01*
X152468847Y-99172931D02*
X152659323Y-99125312D01*
X152659323Y-99125312D02*
X152754561Y-99077693D01*
X152754561Y-99077693D02*
X152849800Y-98982455D01*
X152849800Y-98982455D02*
X152897419Y-98839598D01*
X152897419Y-98839598D02*
X152897419Y-98601503D01*
X139780752Y-102683646D02*
X140447419Y-102874122D01*
X140447419Y-102874122D02*
X139971228Y-103064598D01*
X139971228Y-103064598D02*
X140447419Y-103255074D01*
X140447419Y-103255074D02*
X139780752Y-103445550D01*
X140447419Y-103826503D02*
X139780752Y-103826503D01*
X139447419Y-103826503D02*
X139495038Y-103778884D01*
X139495038Y-103778884D02*
X139542657Y-103826503D01*
X139542657Y-103826503D02*
X139495038Y-103874122D01*
X139495038Y-103874122D02*
X139447419Y-103826503D01*
X139447419Y-103826503D02*
X139542657Y-103826503D01*
X139780752Y-104159836D02*
X139780752Y-104540788D01*
X139447419Y-104302693D02*
X140304561Y-104302693D01*
X140304561Y-104302693D02*
X140399800Y-104350312D01*
X140399800Y-104350312D02*
X140447419Y-104445550D01*
X140447419Y-104445550D02*
X140447419Y-104540788D01*
X140447419Y-104874122D02*
X139447419Y-104874122D01*
X140447419Y-105302693D02*
X139923609Y-105302693D01*
X139923609Y-105302693D02*
X139828371Y-105255074D01*
X139828371Y-105255074D02*
X139780752Y-105159836D01*
X139780752Y-105159836D02*
X139780752Y-105016979D01*
X139780752Y-105016979D02*
X139828371Y-104921741D01*
X139828371Y-104921741D02*
X139875990Y-104874122D01*
X140447419Y-105921741D02*
X140399800Y-105826503D01*
X140399800Y-105826503D02*
X140352180Y-105778884D01*
X140352180Y-105778884D02*
X140256942Y-105731265D01*
X140256942Y-105731265D02*
X139971228Y-105731265D01*
X139971228Y-105731265D02*
X139875990Y-105778884D01*
X139875990Y-105778884D02*
X139828371Y-105826503D01*
X139828371Y-105826503D02*
X139780752Y-105921741D01*
X139780752Y-105921741D02*
X139780752Y-106064598D01*
X139780752Y-106064598D02*
X139828371Y-106159836D01*
X139828371Y-106159836D02*
X139875990Y-106207455D01*
X139875990Y-106207455D02*
X139971228Y-106255074D01*
X139971228Y-106255074D02*
X140256942Y-106255074D01*
X140256942Y-106255074D02*
X140352180Y-106207455D01*
X140352180Y-106207455D02*
X140399800Y-106159836D01*
X140399800Y-106159836D02*
X140447419Y-106064598D01*
X140447419Y-106064598D02*
X140447419Y-105921741D01*
X139780752Y-107112217D02*
X140447419Y-107112217D01*
X139780752Y-106683646D02*
X140304561Y-106683646D01*
X140304561Y-106683646D02*
X140399800Y-106731265D01*
X140399800Y-106731265D02*
X140447419Y-106826503D01*
X140447419Y-106826503D02*
X140447419Y-106969360D01*
X140447419Y-106969360D02*
X140399800Y-107064598D01*
X140399800Y-107064598D02*
X140352180Y-107112217D01*
X139780752Y-107445551D02*
X139780752Y-107826503D01*
X139447419Y-107588408D02*
X140304561Y-107588408D01*
X140304561Y-107588408D02*
X140399800Y-107636027D01*
X140399800Y-107636027D02*
X140447419Y-107731265D01*
X140447419Y-107731265D02*
X140447419Y-107826503D01*
X140447419Y-109350313D02*
X139923609Y-109350313D01*
X139923609Y-109350313D02*
X139828371Y-109302694D01*
X139828371Y-109302694D02*
X139780752Y-109207456D01*
X139780752Y-109207456D02*
X139780752Y-109016980D01*
X139780752Y-109016980D02*
X139828371Y-108921742D01*
X140399800Y-109350313D02*
X140447419Y-109255075D01*
X140447419Y-109255075D02*
X140447419Y-109016980D01*
X140447419Y-109016980D02*
X140399800Y-108921742D01*
X140399800Y-108921742D02*
X140304561Y-108874123D01*
X140304561Y-108874123D02*
X140209323Y-108874123D01*
X140209323Y-108874123D02*
X140114085Y-108921742D01*
X140114085Y-108921742D02*
X140066466Y-109016980D01*
X140066466Y-109016980D02*
X140066466Y-109255075D01*
X140066466Y-109255075D02*
X140018847Y-109350313D01*
X140447419Y-110255075D02*
X139447419Y-110255075D01*
X140399800Y-110255075D02*
X140447419Y-110159837D01*
X140447419Y-110159837D02*
X140447419Y-109969361D01*
X140447419Y-109969361D02*
X140399800Y-109874123D01*
X140399800Y-109874123D02*
X140352180Y-109826504D01*
X140352180Y-109826504D02*
X140256942Y-109778885D01*
X140256942Y-109778885D02*
X139971228Y-109778885D01*
X139971228Y-109778885D02*
X139875990Y-109826504D01*
X139875990Y-109826504D02*
X139828371Y-109874123D01*
X139828371Y-109874123D02*
X139780752Y-109969361D01*
X139780752Y-109969361D02*
X139780752Y-110159837D01*
X139780752Y-110159837D02*
X139828371Y-110255075D01*
X140447419Y-111159837D02*
X139447419Y-111159837D01*
X140399800Y-111159837D02*
X140447419Y-111064599D01*
X140447419Y-111064599D02*
X140447419Y-110874123D01*
X140447419Y-110874123D02*
X140399800Y-110778885D01*
X140399800Y-110778885D02*
X140352180Y-110731266D01*
X140352180Y-110731266D02*
X140256942Y-110683647D01*
X140256942Y-110683647D02*
X139971228Y-110683647D01*
X139971228Y-110683647D02*
X139875990Y-110731266D01*
X139875990Y-110731266D02*
X139828371Y-110778885D01*
X139828371Y-110778885D02*
X139780752Y-110874123D01*
X139780752Y-110874123D02*
X139780752Y-111064599D01*
X139780752Y-111064599D02*
X139828371Y-111159837D01*
X140447419Y-111636028D02*
X139780752Y-111636028D01*
X139447419Y-111636028D02*
X139495038Y-111588409D01*
X139495038Y-111588409D02*
X139542657Y-111636028D01*
X139542657Y-111636028D02*
X139495038Y-111683647D01*
X139495038Y-111683647D02*
X139447419Y-111636028D01*
X139447419Y-111636028D02*
X139542657Y-111636028D01*
X139780752Y-111969361D02*
X139780752Y-112350313D01*
X139447419Y-112112218D02*
X140304561Y-112112218D01*
X140304561Y-112112218D02*
X140399800Y-112159837D01*
X140399800Y-112159837D02*
X140447419Y-112255075D01*
X140447419Y-112255075D02*
X140447419Y-112350313D01*
X140447419Y-112683647D02*
X139780752Y-112683647D01*
X139447419Y-112683647D02*
X139495038Y-112636028D01*
X139495038Y-112636028D02*
X139542657Y-112683647D01*
X139542657Y-112683647D02*
X139495038Y-112731266D01*
X139495038Y-112731266D02*
X139447419Y-112683647D01*
X139447419Y-112683647D02*
X139542657Y-112683647D01*
X140447419Y-113302694D02*
X140399800Y-113207456D01*
X140399800Y-113207456D02*
X140352180Y-113159837D01*
X140352180Y-113159837D02*
X140256942Y-113112218D01*
X140256942Y-113112218D02*
X139971228Y-113112218D01*
X139971228Y-113112218D02*
X139875990Y-113159837D01*
X139875990Y-113159837D02*
X139828371Y-113207456D01*
X139828371Y-113207456D02*
X139780752Y-113302694D01*
X139780752Y-113302694D02*
X139780752Y-113445551D01*
X139780752Y-113445551D02*
X139828371Y-113540789D01*
X139828371Y-113540789D02*
X139875990Y-113588408D01*
X139875990Y-113588408D02*
X139971228Y-113636027D01*
X139971228Y-113636027D02*
X140256942Y-113636027D01*
X140256942Y-113636027D02*
X140352180Y-113588408D01*
X140352180Y-113588408D02*
X140399800Y-113540789D01*
X140399800Y-113540789D02*
X140447419Y-113445551D01*
X140447419Y-113445551D02*
X140447419Y-113302694D01*
X139780752Y-114064599D02*
X140447419Y-114064599D01*
X139875990Y-114064599D02*
X139828371Y-114112218D01*
X139828371Y-114112218D02*
X139780752Y-114207456D01*
X139780752Y-114207456D02*
X139780752Y-114350313D01*
X139780752Y-114350313D02*
X139828371Y-114445551D01*
X139828371Y-114445551D02*
X139923609Y-114493170D01*
X139923609Y-114493170D02*
X140447419Y-114493170D01*
X140447419Y-115397932D02*
X139923609Y-115397932D01*
X139923609Y-115397932D02*
X139828371Y-115350313D01*
X139828371Y-115350313D02*
X139780752Y-115255075D01*
X139780752Y-115255075D02*
X139780752Y-115064599D01*
X139780752Y-115064599D02*
X139828371Y-114969361D01*
X140399800Y-115397932D02*
X140447419Y-115302694D01*
X140447419Y-115302694D02*
X140447419Y-115064599D01*
X140447419Y-115064599D02*
X140399800Y-114969361D01*
X140399800Y-114969361D02*
X140304561Y-114921742D01*
X140304561Y-114921742D02*
X140209323Y-114921742D01*
X140209323Y-114921742D02*
X140114085Y-114969361D01*
X140114085Y-114969361D02*
X140066466Y-115064599D01*
X140066466Y-115064599D02*
X140066466Y-115302694D01*
X140066466Y-115302694D02*
X140018847Y-115397932D01*
X140447419Y-116016980D02*
X140399800Y-115921742D01*
X140399800Y-115921742D02*
X140304561Y-115874123D01*
X140304561Y-115874123D02*
X139447419Y-115874123D01*
X140399800Y-117112219D02*
X140447419Y-117207457D01*
X140447419Y-117207457D02*
X140447419Y-117397933D01*
X140447419Y-117397933D02*
X140399800Y-117493171D01*
X140399800Y-117493171D02*
X140304561Y-117540790D01*
X140304561Y-117540790D02*
X140256942Y-117540790D01*
X140256942Y-117540790D02*
X140161704Y-117493171D01*
X140161704Y-117493171D02*
X140114085Y-117397933D01*
X140114085Y-117397933D02*
X140114085Y-117255076D01*
X140114085Y-117255076D02*
X140066466Y-117159838D01*
X140066466Y-117159838D02*
X139971228Y-117112219D01*
X139971228Y-117112219D02*
X139923609Y-117112219D01*
X139923609Y-117112219D02*
X139828371Y-117159838D01*
X139828371Y-117159838D02*
X139780752Y-117255076D01*
X139780752Y-117255076D02*
X139780752Y-117397933D01*
X139780752Y-117397933D02*
X139828371Y-117493171D01*
X140447419Y-118112219D02*
X140399800Y-118016981D01*
X140399800Y-118016981D02*
X140352180Y-117969362D01*
X140352180Y-117969362D02*
X140256942Y-117921743D01*
X140256942Y-117921743D02*
X139971228Y-117921743D01*
X139971228Y-117921743D02*
X139875990Y-117969362D01*
X139875990Y-117969362D02*
X139828371Y-118016981D01*
X139828371Y-118016981D02*
X139780752Y-118112219D01*
X139780752Y-118112219D02*
X139780752Y-118255076D01*
X139780752Y-118255076D02*
X139828371Y-118350314D01*
X139828371Y-118350314D02*
X139875990Y-118397933D01*
X139875990Y-118397933D02*
X139971228Y-118445552D01*
X139971228Y-118445552D02*
X140256942Y-118445552D01*
X140256942Y-118445552D02*
X140352180Y-118397933D01*
X140352180Y-118397933D02*
X140399800Y-118350314D01*
X140399800Y-118350314D02*
X140447419Y-118255076D01*
X140447419Y-118255076D02*
X140447419Y-118112219D01*
X140447419Y-119016981D02*
X140399800Y-118921743D01*
X140399800Y-118921743D02*
X140304561Y-118874124D01*
X140304561Y-118874124D02*
X139447419Y-118874124D01*
X140447419Y-119826505D02*
X139447419Y-119826505D01*
X140399800Y-119826505D02*
X140447419Y-119731267D01*
X140447419Y-119731267D02*
X140447419Y-119540791D01*
X140447419Y-119540791D02*
X140399800Y-119445553D01*
X140399800Y-119445553D02*
X140352180Y-119397934D01*
X140352180Y-119397934D02*
X140256942Y-119350315D01*
X140256942Y-119350315D02*
X139971228Y-119350315D01*
X139971228Y-119350315D02*
X139875990Y-119397934D01*
X139875990Y-119397934D02*
X139828371Y-119445553D01*
X139828371Y-119445553D02*
X139780752Y-119540791D01*
X139780752Y-119540791D02*
X139780752Y-119731267D01*
X139780752Y-119731267D02*
X139828371Y-119826505D01*
X140399800Y-120683648D02*
X140447419Y-120588410D01*
X140447419Y-120588410D02*
X140447419Y-120397934D01*
X140447419Y-120397934D02*
X140399800Y-120302696D01*
X140399800Y-120302696D02*
X140304561Y-120255077D01*
X140304561Y-120255077D02*
X139923609Y-120255077D01*
X139923609Y-120255077D02*
X139828371Y-120302696D01*
X139828371Y-120302696D02*
X139780752Y-120397934D01*
X139780752Y-120397934D02*
X139780752Y-120588410D01*
X139780752Y-120588410D02*
X139828371Y-120683648D01*
X139828371Y-120683648D02*
X139923609Y-120731267D01*
X139923609Y-120731267D02*
X140018847Y-120731267D01*
X140018847Y-120731267D02*
X140114085Y-120255077D01*
X140447419Y-121159839D02*
X139780752Y-121159839D01*
X139971228Y-121159839D02*
X139875990Y-121207458D01*
X139875990Y-121207458D02*
X139828371Y-121255077D01*
X139828371Y-121255077D02*
X139780752Y-121350315D01*
X139780752Y-121350315D02*
X139780752Y-121445553D01*
X166597419Y-109603884D02*
X165930752Y-109603884D01*
X166121228Y-109603884D02*
X166025990Y-109651503D01*
X166025990Y-109651503D02*
X165978371Y-109699122D01*
X165978371Y-109699122D02*
X165930752Y-109794360D01*
X165930752Y-109794360D02*
X165930752Y-109889598D01*
X166549800Y-110603884D02*
X166597419Y-110508646D01*
X166597419Y-110508646D02*
X166597419Y-110318170D01*
X166597419Y-110318170D02*
X166549800Y-110222932D01*
X166549800Y-110222932D02*
X166454561Y-110175313D01*
X166454561Y-110175313D02*
X166073609Y-110175313D01*
X166073609Y-110175313D02*
X165978371Y-110222932D01*
X165978371Y-110222932D02*
X165930752Y-110318170D01*
X165930752Y-110318170D02*
X165930752Y-110508646D01*
X165930752Y-110508646D02*
X165978371Y-110603884D01*
X165978371Y-110603884D02*
X166073609Y-110651503D01*
X166073609Y-110651503D02*
X166168847Y-110651503D01*
X166168847Y-110651503D02*
X166264085Y-110175313D01*
X165930752Y-110984837D02*
X166597419Y-111222932D01*
X166597419Y-111222932D02*
X165930752Y-111461027D01*
X166597419Y-113127694D02*
X166597419Y-112556266D01*
X166597419Y-112841980D02*
X165597419Y-112841980D01*
X165597419Y-112841980D02*
X165740276Y-112746742D01*
X165740276Y-112746742D02*
X165835514Y-112651504D01*
X165835514Y-112651504D02*
X165883133Y-112556266D01*
X166502180Y-113556266D02*
X166549800Y-113603885D01*
X166549800Y-113603885D02*
X166597419Y-113556266D01*
X166597419Y-113556266D02*
X166549800Y-113508647D01*
X166549800Y-113508647D02*
X166502180Y-113556266D01*
X166502180Y-113556266D02*
X166597419Y-113556266D01*
X165597419Y-114222932D02*
X165597419Y-114318170D01*
X165597419Y-114318170D02*
X165645038Y-114413408D01*
X165645038Y-114413408D02*
X165692657Y-114461027D01*
X165692657Y-114461027D02*
X165787895Y-114508646D01*
X165787895Y-114508646D02*
X165978371Y-114556265D01*
X165978371Y-114556265D02*
X166216466Y-114556265D01*
X166216466Y-114556265D02*
X166406942Y-114508646D01*
X166406942Y-114508646D02*
X166502180Y-114461027D01*
X166502180Y-114461027D02*
X166549800Y-114413408D01*
X166549800Y-114413408D02*
X166597419Y-114318170D01*
X166597419Y-114318170D02*
X166597419Y-114222932D01*
X166597419Y-114222932D02*
X166549800Y-114127694D01*
X166549800Y-114127694D02*
X166502180Y-114080075D01*
X166502180Y-114080075D02*
X166406942Y-114032456D01*
X166406942Y-114032456D02*
X166216466Y-113984837D01*
X166216466Y-113984837D02*
X165978371Y-113984837D01*
X165978371Y-113984837D02*
X165787895Y-114032456D01*
X165787895Y-114032456D02*
X165692657Y-114080075D01*
X165692657Y-114080075D02*
X165645038Y-114127694D01*
X165645038Y-114127694D02*
X165597419Y-114222932D01*
X166502180Y-114984837D02*
X166549800Y-115032456D01*
X166549800Y-115032456D02*
X166597419Y-114984837D01*
X166597419Y-114984837D02*
X166549800Y-114937218D01*
X166549800Y-114937218D02*
X166502180Y-114984837D01*
X166502180Y-114984837D02*
X166597419Y-114984837D01*
X165597419Y-115651503D02*
X165597419Y-115746741D01*
X165597419Y-115746741D02*
X165645038Y-115841979D01*
X165645038Y-115841979D02*
X165692657Y-115889598D01*
X165692657Y-115889598D02*
X165787895Y-115937217D01*
X165787895Y-115937217D02*
X165978371Y-115984836D01*
X165978371Y-115984836D02*
X166216466Y-115984836D01*
X166216466Y-115984836D02*
X166406942Y-115937217D01*
X166406942Y-115937217D02*
X166502180Y-115889598D01*
X166502180Y-115889598D02*
X166549800Y-115841979D01*
X166549800Y-115841979D02*
X166597419Y-115746741D01*
X166597419Y-115746741D02*
X166597419Y-115651503D01*
X166597419Y-115651503D02*
X166549800Y-115556265D01*
X166549800Y-115556265D02*
X166502180Y-115508646D01*
X166502180Y-115508646D02*
X166406942Y-115461027D01*
X166406942Y-115461027D02*
X166216466Y-115413408D01*
X166216466Y-115413408D02*
X165978371Y-115413408D01*
X165978371Y-115413408D02*
X165787895Y-115461027D01*
X165787895Y-115461027D02*
X165692657Y-115508646D01*
X165692657Y-115508646D02*
X165645038Y-115556265D01*
X165645038Y-115556265D02*
X165597419Y-115651503D01*
X138947419Y-103228884D02*
X137947419Y-103228884D01*
X137947419Y-103228884D02*
X137947419Y-103466979D01*
X137947419Y-103466979D02*
X137995038Y-103609836D01*
X137995038Y-103609836D02*
X138090276Y-103705074D01*
X138090276Y-103705074D02*
X138185514Y-103752693D01*
X138185514Y-103752693D02*
X138375990Y-103800312D01*
X138375990Y-103800312D02*
X138518847Y-103800312D01*
X138518847Y-103800312D02*
X138709323Y-103752693D01*
X138709323Y-103752693D02*
X138804561Y-103705074D01*
X138804561Y-103705074D02*
X138899800Y-103609836D01*
X138899800Y-103609836D02*
X138947419Y-103466979D01*
X138947419Y-103466979D02*
X138947419Y-103228884D01*
X138947419Y-104371741D02*
X138899800Y-104276503D01*
X138899800Y-104276503D02*
X138852180Y-104228884D01*
X138852180Y-104228884D02*
X138756942Y-104181265D01*
X138756942Y-104181265D02*
X138471228Y-104181265D01*
X138471228Y-104181265D02*
X138375990Y-104228884D01*
X138375990Y-104228884D02*
X138328371Y-104276503D01*
X138328371Y-104276503D02*
X138280752Y-104371741D01*
X138280752Y-104371741D02*
X138280752Y-104514598D01*
X138280752Y-104514598D02*
X138328371Y-104609836D01*
X138328371Y-104609836D02*
X138375990Y-104657455D01*
X138375990Y-104657455D02*
X138471228Y-104705074D01*
X138471228Y-104705074D02*
X138756942Y-104705074D01*
X138756942Y-104705074D02*
X138852180Y-104657455D01*
X138852180Y-104657455D02*
X138899800Y-104609836D01*
X138899800Y-104609836D02*
X138947419Y-104514598D01*
X138947419Y-104514598D02*
X138947419Y-104371741D01*
X138280752Y-105895551D02*
X138947419Y-105895551D01*
X138375990Y-105895551D02*
X138328371Y-105943170D01*
X138328371Y-105943170D02*
X138280752Y-106038408D01*
X138280752Y-106038408D02*
X138280752Y-106181265D01*
X138280752Y-106181265D02*
X138328371Y-106276503D01*
X138328371Y-106276503D02*
X138423609Y-106324122D01*
X138423609Y-106324122D02*
X138947419Y-106324122D01*
X138947419Y-106943170D02*
X138899800Y-106847932D01*
X138899800Y-106847932D02*
X138852180Y-106800313D01*
X138852180Y-106800313D02*
X138756942Y-106752694D01*
X138756942Y-106752694D02*
X138471228Y-106752694D01*
X138471228Y-106752694D02*
X138375990Y-106800313D01*
X138375990Y-106800313D02*
X138328371Y-106847932D01*
X138328371Y-106847932D02*
X138280752Y-106943170D01*
X138280752Y-106943170D02*
X138280752Y-107086027D01*
X138280752Y-107086027D02*
X138328371Y-107181265D01*
X138328371Y-107181265D02*
X138375990Y-107228884D01*
X138375990Y-107228884D02*
X138471228Y-107276503D01*
X138471228Y-107276503D02*
X138756942Y-107276503D01*
X138756942Y-107276503D02*
X138852180Y-107228884D01*
X138852180Y-107228884D02*
X138899800Y-107181265D01*
X138899800Y-107181265D02*
X138947419Y-107086027D01*
X138947419Y-107086027D02*
X138947419Y-106943170D01*
X138280752Y-107562218D02*
X138280752Y-107943170D01*
X137947419Y-107705075D02*
X138804561Y-107705075D01*
X138804561Y-107705075D02*
X138899800Y-107752694D01*
X138899800Y-107752694D02*
X138947419Y-107847932D01*
X138947419Y-107847932D02*
X138947419Y-107943170D01*
X138899800Y-109419361D02*
X138947419Y-109324123D01*
X138947419Y-109324123D02*
X138947419Y-109133647D01*
X138947419Y-109133647D02*
X138899800Y-109038409D01*
X138899800Y-109038409D02*
X138804561Y-108990790D01*
X138804561Y-108990790D02*
X138423609Y-108990790D01*
X138423609Y-108990790D02*
X138328371Y-109038409D01*
X138328371Y-109038409D02*
X138280752Y-109133647D01*
X138280752Y-109133647D02*
X138280752Y-109324123D01*
X138280752Y-109324123D02*
X138328371Y-109419361D01*
X138328371Y-109419361D02*
X138423609Y-109466980D01*
X138423609Y-109466980D02*
X138518847Y-109466980D01*
X138518847Y-109466980D02*
X138614085Y-108990790D01*
X138947419Y-109800314D02*
X138280752Y-110324123D01*
X138280752Y-109800314D02*
X138947419Y-110324123D01*
X138899800Y-111133647D02*
X138947419Y-111038409D01*
X138947419Y-111038409D02*
X138947419Y-110847933D01*
X138947419Y-110847933D02*
X138899800Y-110752695D01*
X138899800Y-110752695D02*
X138852180Y-110705076D01*
X138852180Y-110705076D02*
X138756942Y-110657457D01*
X138756942Y-110657457D02*
X138471228Y-110657457D01*
X138471228Y-110657457D02*
X138375990Y-110705076D01*
X138375990Y-110705076D02*
X138328371Y-110752695D01*
X138328371Y-110752695D02*
X138280752Y-110847933D01*
X138280752Y-110847933D02*
X138280752Y-111038409D01*
X138280752Y-111038409D02*
X138328371Y-111133647D01*
X138899800Y-111943171D02*
X138947419Y-111847933D01*
X138947419Y-111847933D02*
X138947419Y-111657457D01*
X138947419Y-111657457D02*
X138899800Y-111562219D01*
X138899800Y-111562219D02*
X138804561Y-111514600D01*
X138804561Y-111514600D02*
X138423609Y-111514600D01*
X138423609Y-111514600D02*
X138328371Y-111562219D01*
X138328371Y-111562219D02*
X138280752Y-111657457D01*
X138280752Y-111657457D02*
X138280752Y-111847933D01*
X138280752Y-111847933D02*
X138328371Y-111943171D01*
X138328371Y-111943171D02*
X138423609Y-111990790D01*
X138423609Y-111990790D02*
X138518847Y-111990790D01*
X138518847Y-111990790D02*
X138614085Y-111514600D01*
X138899800Y-112800314D02*
X138947419Y-112705076D01*
X138947419Y-112705076D02*
X138947419Y-112514600D01*
X138947419Y-112514600D02*
X138899800Y-112419362D01*
X138899800Y-112419362D02*
X138804561Y-112371743D01*
X138804561Y-112371743D02*
X138423609Y-112371743D01*
X138423609Y-112371743D02*
X138328371Y-112419362D01*
X138328371Y-112419362D02*
X138280752Y-112514600D01*
X138280752Y-112514600D02*
X138280752Y-112705076D01*
X138280752Y-112705076D02*
X138328371Y-112800314D01*
X138328371Y-112800314D02*
X138423609Y-112847933D01*
X138423609Y-112847933D02*
X138518847Y-112847933D01*
X138518847Y-112847933D02*
X138614085Y-112371743D01*
X138947419Y-113705076D02*
X137947419Y-113705076D01*
X138899800Y-113705076D02*
X138947419Y-113609838D01*
X138947419Y-113609838D02*
X138947419Y-113419362D01*
X138947419Y-113419362D02*
X138899800Y-113324124D01*
X138899800Y-113324124D02*
X138852180Y-113276505D01*
X138852180Y-113276505D02*
X138756942Y-113228886D01*
X138756942Y-113228886D02*
X138471228Y-113228886D01*
X138471228Y-113228886D02*
X138375990Y-113276505D01*
X138375990Y-113276505D02*
X138328371Y-113324124D01*
X138328371Y-113324124D02*
X138280752Y-113419362D01*
X138280752Y-113419362D02*
X138280752Y-113609838D01*
X138280752Y-113609838D02*
X138328371Y-113705076D01*
X138947419Y-115466981D02*
X138947419Y-114895553D01*
X138947419Y-115181267D02*
X137947419Y-115181267D01*
X137947419Y-115181267D02*
X138090276Y-115086029D01*
X138090276Y-115086029D02*
X138185514Y-114990791D01*
X138185514Y-114990791D02*
X138233133Y-114895553D01*
X137947419Y-116086029D02*
X137947419Y-116181267D01*
X137947419Y-116181267D02*
X137995038Y-116276505D01*
X137995038Y-116276505D02*
X138042657Y-116324124D01*
X138042657Y-116324124D02*
X138137895Y-116371743D01*
X138137895Y-116371743D02*
X138328371Y-116419362D01*
X138328371Y-116419362D02*
X138566466Y-116419362D01*
X138566466Y-116419362D02*
X138756942Y-116371743D01*
X138756942Y-116371743D02*
X138852180Y-116324124D01*
X138852180Y-116324124D02*
X138899800Y-116276505D01*
X138899800Y-116276505D02*
X138947419Y-116181267D01*
X138947419Y-116181267D02*
X138947419Y-116086029D01*
X138947419Y-116086029D02*
X138899800Y-115990791D01*
X138899800Y-115990791D02*
X138852180Y-115943172D01*
X138852180Y-115943172D02*
X138756942Y-115895553D01*
X138756942Y-115895553D02*
X138566466Y-115847934D01*
X138566466Y-115847934D02*
X138328371Y-115847934D01*
X138328371Y-115847934D02*
X138137895Y-115895553D01*
X138137895Y-115895553D02*
X138042657Y-115943172D01*
X138042657Y-115943172D02*
X137995038Y-115990791D01*
X137995038Y-115990791D02*
X137947419Y-116086029D01*
X138947419Y-118038410D02*
X138423609Y-118038410D01*
X138423609Y-118038410D02*
X138328371Y-117990791D01*
X138328371Y-117990791D02*
X138280752Y-117895553D01*
X138280752Y-117895553D02*
X138280752Y-117705077D01*
X138280752Y-117705077D02*
X138328371Y-117609839D01*
X138899800Y-118038410D02*
X138947419Y-117943172D01*
X138947419Y-117943172D02*
X138947419Y-117705077D01*
X138947419Y-117705077D02*
X138899800Y-117609839D01*
X138899800Y-117609839D02*
X138804561Y-117562220D01*
X138804561Y-117562220D02*
X138709323Y-117562220D01*
X138709323Y-117562220D02*
X138614085Y-117609839D01*
X138614085Y-117609839D02*
X138566466Y-117705077D01*
X138566466Y-117705077D02*
X138566466Y-117943172D01*
X138566466Y-117943172D02*
X138518847Y-118038410D01*
X138947419Y-118514601D02*
X138280752Y-118514601D01*
X138375990Y-118514601D02*
X138328371Y-118562220D01*
X138328371Y-118562220D02*
X138280752Y-118657458D01*
X138280752Y-118657458D02*
X138280752Y-118800315D01*
X138280752Y-118800315D02*
X138328371Y-118895553D01*
X138328371Y-118895553D02*
X138423609Y-118943172D01*
X138423609Y-118943172D02*
X138947419Y-118943172D01*
X138423609Y-118943172D02*
X138328371Y-118990791D01*
X138328371Y-118990791D02*
X138280752Y-119086029D01*
X138280752Y-119086029D02*
X138280752Y-119228886D01*
X138280752Y-119228886D02*
X138328371Y-119324125D01*
X138328371Y-119324125D02*
X138423609Y-119371744D01*
X138423609Y-119371744D02*
X138947419Y-119371744D01*
X138280752Y-119847934D02*
X139280752Y-119847934D01*
X138328371Y-119847934D02*
X138280752Y-119943172D01*
X138280752Y-119943172D02*
X138280752Y-120133648D01*
X138280752Y-120133648D02*
X138328371Y-120228886D01*
X138328371Y-120228886D02*
X138375990Y-120276505D01*
X138375990Y-120276505D02*
X138471228Y-120324124D01*
X138471228Y-120324124D02*
X138756942Y-120324124D01*
X138756942Y-120324124D02*
X138852180Y-120276505D01*
X138852180Y-120276505D02*
X138899800Y-120228886D01*
X138899800Y-120228886D02*
X138947419Y-120133648D01*
X138947419Y-120133648D02*
X138947419Y-119943172D01*
X138947419Y-119943172D02*
X138899800Y-119847934D01*
X141722419Y-105846741D02*
X141674800Y-105751503D01*
X141674800Y-105751503D02*
X141627180Y-105703884D01*
X141627180Y-105703884D02*
X141531942Y-105656265D01*
X141531942Y-105656265D02*
X141246228Y-105656265D01*
X141246228Y-105656265D02*
X141150990Y-105703884D01*
X141150990Y-105703884D02*
X141103371Y-105751503D01*
X141103371Y-105751503D02*
X141055752Y-105846741D01*
X141055752Y-105846741D02*
X141055752Y-105989598D01*
X141055752Y-105989598D02*
X141103371Y-106084836D01*
X141103371Y-106084836D02*
X141150990Y-106132455D01*
X141150990Y-106132455D02*
X141246228Y-106180074D01*
X141246228Y-106180074D02*
X141531942Y-106180074D01*
X141531942Y-106180074D02*
X141627180Y-106132455D01*
X141627180Y-106132455D02*
X141674800Y-106084836D01*
X141674800Y-106084836D02*
X141722419Y-105989598D01*
X141722419Y-105989598D02*
X141722419Y-105846741D01*
X141055752Y-106608646D02*
X141722419Y-106608646D01*
X141150990Y-106608646D02*
X141103371Y-106656265D01*
X141103371Y-106656265D02*
X141055752Y-106751503D01*
X141055752Y-106751503D02*
X141055752Y-106894360D01*
X141055752Y-106894360D02*
X141103371Y-106989598D01*
X141103371Y-106989598D02*
X141198609Y-107037217D01*
X141198609Y-107037217D02*
X141722419Y-107037217D01*
X141055752Y-108275313D02*
X142055752Y-108275313D01*
X141103371Y-108275313D02*
X141055752Y-108370551D01*
X141055752Y-108370551D02*
X141055752Y-108561027D01*
X141055752Y-108561027D02*
X141103371Y-108656265D01*
X141103371Y-108656265D02*
X141150990Y-108703884D01*
X141150990Y-108703884D02*
X141246228Y-108751503D01*
X141246228Y-108751503D02*
X141531942Y-108751503D01*
X141531942Y-108751503D02*
X141627180Y-108703884D01*
X141627180Y-108703884D02*
X141674800Y-108656265D01*
X141674800Y-108656265D02*
X141722419Y-108561027D01*
X141722419Y-108561027D02*
X141722419Y-108370551D01*
X141722419Y-108370551D02*
X141674800Y-108275313D01*
X141722419Y-109322932D02*
X141674800Y-109227694D01*
X141674800Y-109227694D02*
X141627180Y-109180075D01*
X141627180Y-109180075D02*
X141531942Y-109132456D01*
X141531942Y-109132456D02*
X141246228Y-109132456D01*
X141246228Y-109132456D02*
X141150990Y-109180075D01*
X141150990Y-109180075D02*
X141103371Y-109227694D01*
X141103371Y-109227694D02*
X141055752Y-109322932D01*
X141055752Y-109322932D02*
X141055752Y-109465789D01*
X141055752Y-109465789D02*
X141103371Y-109561027D01*
X141103371Y-109561027D02*
X141150990Y-109608646D01*
X141150990Y-109608646D02*
X141246228Y-109656265D01*
X141246228Y-109656265D02*
X141531942Y-109656265D01*
X141531942Y-109656265D02*
X141627180Y-109608646D01*
X141627180Y-109608646D02*
X141674800Y-109561027D01*
X141674800Y-109561027D02*
X141722419Y-109465789D01*
X141722419Y-109465789D02*
X141722419Y-109322932D01*
X141055752Y-109989599D02*
X141722419Y-110180075D01*
X141722419Y-110180075D02*
X141246228Y-110370551D01*
X141246228Y-110370551D02*
X141722419Y-110561027D01*
X141722419Y-110561027D02*
X141055752Y-110751503D01*
X141674800Y-111513408D02*
X141722419Y-111418170D01*
X141722419Y-111418170D02*
X141722419Y-111227694D01*
X141722419Y-111227694D02*
X141674800Y-111132456D01*
X141674800Y-111132456D02*
X141579561Y-111084837D01*
X141579561Y-111084837D02*
X141198609Y-111084837D01*
X141198609Y-111084837D02*
X141103371Y-111132456D01*
X141103371Y-111132456D02*
X141055752Y-111227694D01*
X141055752Y-111227694D02*
X141055752Y-111418170D01*
X141055752Y-111418170D02*
X141103371Y-111513408D01*
X141103371Y-111513408D02*
X141198609Y-111561027D01*
X141198609Y-111561027D02*
X141293847Y-111561027D01*
X141293847Y-111561027D02*
X141389085Y-111084837D01*
X141722419Y-111989599D02*
X141055752Y-111989599D01*
X141246228Y-111989599D02*
X141150990Y-112037218D01*
X141150990Y-112037218D02*
X141103371Y-112084837D01*
X141103371Y-112084837D02*
X141055752Y-112180075D01*
X141055752Y-112180075D02*
X141055752Y-112275313D01*
X141055752Y-113227695D02*
X141055752Y-113608647D01*
X140722419Y-113370552D02*
X141579561Y-113370552D01*
X141579561Y-113370552D02*
X141674800Y-113418171D01*
X141674800Y-113418171D02*
X141722419Y-113513409D01*
X141722419Y-113513409D02*
X141722419Y-113608647D01*
X141722419Y-113941981D02*
X141055752Y-113941981D01*
X141246228Y-113941981D02*
X141150990Y-113989600D01*
X141150990Y-113989600D02*
X141103371Y-114037219D01*
X141103371Y-114037219D02*
X141055752Y-114132457D01*
X141055752Y-114132457D02*
X141055752Y-114227695D01*
X141722419Y-114989600D02*
X141198609Y-114989600D01*
X141198609Y-114989600D02*
X141103371Y-114941981D01*
X141103371Y-114941981D02*
X141055752Y-114846743D01*
X141055752Y-114846743D02*
X141055752Y-114656267D01*
X141055752Y-114656267D02*
X141103371Y-114561029D01*
X141674800Y-114989600D02*
X141722419Y-114894362D01*
X141722419Y-114894362D02*
X141722419Y-114656267D01*
X141722419Y-114656267D02*
X141674800Y-114561029D01*
X141674800Y-114561029D02*
X141579561Y-114513410D01*
X141579561Y-114513410D02*
X141484323Y-114513410D01*
X141484323Y-114513410D02*
X141389085Y-114561029D01*
X141389085Y-114561029D02*
X141341466Y-114656267D01*
X141341466Y-114656267D02*
X141341466Y-114894362D01*
X141341466Y-114894362D02*
X141293847Y-114989600D01*
X141674800Y-115894362D02*
X141722419Y-115799124D01*
X141722419Y-115799124D02*
X141722419Y-115608648D01*
X141722419Y-115608648D02*
X141674800Y-115513410D01*
X141674800Y-115513410D02*
X141627180Y-115465791D01*
X141627180Y-115465791D02*
X141531942Y-115418172D01*
X141531942Y-115418172D02*
X141246228Y-115418172D01*
X141246228Y-115418172D02*
X141150990Y-115465791D01*
X141150990Y-115465791D02*
X141103371Y-115513410D01*
X141103371Y-115513410D02*
X141055752Y-115608648D01*
X141055752Y-115608648D02*
X141055752Y-115799124D01*
X141055752Y-115799124D02*
X141103371Y-115894362D01*
X141674800Y-116703886D02*
X141722419Y-116608648D01*
X141722419Y-116608648D02*
X141722419Y-116418172D01*
X141722419Y-116418172D02*
X141674800Y-116322934D01*
X141674800Y-116322934D02*
X141579561Y-116275315D01*
X141579561Y-116275315D02*
X141198609Y-116275315D01*
X141198609Y-116275315D02*
X141103371Y-116322934D01*
X141103371Y-116322934D02*
X141055752Y-116418172D01*
X141055752Y-116418172D02*
X141055752Y-116608648D01*
X141055752Y-116608648D02*
X141103371Y-116703886D01*
X141103371Y-116703886D02*
X141198609Y-116751505D01*
X141198609Y-116751505D02*
X141293847Y-116751505D01*
X141293847Y-116751505D02*
X141389085Y-116275315D01*
X141674800Y-117132458D02*
X141722419Y-117227696D01*
X141722419Y-117227696D02*
X141722419Y-117418172D01*
X141722419Y-117418172D02*
X141674800Y-117513410D01*
X141674800Y-117513410D02*
X141579561Y-117561029D01*
X141579561Y-117561029D02*
X141531942Y-117561029D01*
X141531942Y-117561029D02*
X141436704Y-117513410D01*
X141436704Y-117513410D02*
X141389085Y-117418172D01*
X141389085Y-117418172D02*
X141389085Y-117275315D01*
X141389085Y-117275315D02*
X141341466Y-117180077D01*
X141341466Y-117180077D02*
X141246228Y-117132458D01*
X141246228Y-117132458D02*
X141198609Y-117132458D01*
X141198609Y-117132458D02*
X141103371Y-117180077D01*
X141103371Y-117180077D02*
X141055752Y-117275315D01*
X141055752Y-117275315D02*
X141055752Y-117418172D01*
X141055752Y-117418172D02*
X141103371Y-117513410D01*
X133990308Y-102636027D02*
X134990308Y-102969360D01*
X134990308Y-102969360D02*
X133990308Y-103302693D01*
X134990308Y-103778884D02*
X134942689Y-103683646D01*
X134942689Y-103683646D02*
X134895069Y-103636027D01*
X134895069Y-103636027D02*
X134799831Y-103588408D01*
X134799831Y-103588408D02*
X134514117Y-103588408D01*
X134514117Y-103588408D02*
X134418879Y-103636027D01*
X134418879Y-103636027D02*
X134371260Y-103683646D01*
X134371260Y-103683646D02*
X134323641Y-103778884D01*
X134323641Y-103778884D02*
X134323641Y-103921741D01*
X134323641Y-103921741D02*
X134371260Y-104016979D01*
X134371260Y-104016979D02*
X134418879Y-104064598D01*
X134418879Y-104064598D02*
X134514117Y-104112217D01*
X134514117Y-104112217D02*
X134799831Y-104112217D01*
X134799831Y-104112217D02*
X134895069Y-104064598D01*
X134895069Y-104064598D02*
X134942689Y-104016979D01*
X134942689Y-104016979D02*
X134990308Y-103921741D01*
X134990308Y-103921741D02*
X134990308Y-103778884D01*
X134323641Y-104969360D02*
X134990308Y-104969360D01*
X134323641Y-104540789D02*
X134847450Y-104540789D01*
X134847450Y-104540789D02*
X134942689Y-104588408D01*
X134942689Y-104588408D02*
X134990308Y-104683646D01*
X134990308Y-104683646D02*
X134990308Y-104826503D01*
X134990308Y-104826503D02*
X134942689Y-104921741D01*
X134942689Y-104921741D02*
X134895069Y-104969360D01*
X134323641Y-105302694D02*
X134323641Y-105683646D01*
X133990308Y-105445551D02*
X134847450Y-105445551D01*
X134847450Y-105445551D02*
X134942689Y-105493170D01*
X134942689Y-105493170D02*
X134990308Y-105588408D01*
X134990308Y-105588408D02*
X134990308Y-105683646D01*
X134466498Y-106778885D02*
X134466498Y-107540790D01*
X134752212Y-107540790D02*
X134752212Y-106778885D01*
X133990308Y-108969361D02*
X133990308Y-109064599D01*
X133990308Y-109064599D02*
X134037927Y-109159837D01*
X134037927Y-109159837D02*
X134085546Y-109207456D01*
X134085546Y-109207456D02*
X134180784Y-109255075D01*
X134180784Y-109255075D02*
X134371260Y-109302694D01*
X134371260Y-109302694D02*
X134609355Y-109302694D01*
X134609355Y-109302694D02*
X134799831Y-109255075D01*
X134799831Y-109255075D02*
X134895069Y-109207456D01*
X134895069Y-109207456D02*
X134942689Y-109159837D01*
X134942689Y-109159837D02*
X134990308Y-109064599D01*
X134990308Y-109064599D02*
X134990308Y-108969361D01*
X134990308Y-108969361D02*
X134942689Y-108874123D01*
X134942689Y-108874123D02*
X134895069Y-108826504D01*
X134895069Y-108826504D02*
X134799831Y-108778885D01*
X134799831Y-108778885D02*
X134609355Y-108731266D01*
X134609355Y-108731266D02*
X134371260Y-108731266D01*
X134371260Y-108731266D02*
X134180784Y-108778885D01*
X134180784Y-108778885D02*
X134085546Y-108826504D01*
X134085546Y-108826504D02*
X134037927Y-108874123D01*
X134037927Y-108874123D02*
X133990308Y-108969361D01*
X134609355Y-109731266D02*
X134609355Y-110493171D01*
X133990308Y-110874123D02*
X133990308Y-111493170D01*
X133990308Y-111493170D02*
X134371260Y-111159837D01*
X134371260Y-111159837D02*
X134371260Y-111302694D01*
X134371260Y-111302694D02*
X134418879Y-111397932D01*
X134418879Y-111397932D02*
X134466498Y-111445551D01*
X134466498Y-111445551D02*
X134561736Y-111493170D01*
X134561736Y-111493170D02*
X134799831Y-111493170D01*
X134799831Y-111493170D02*
X134895069Y-111445551D01*
X134895069Y-111445551D02*
X134942689Y-111397932D01*
X134942689Y-111397932D02*
X134990308Y-111302694D01*
X134990308Y-111302694D02*
X134990308Y-111016980D01*
X134990308Y-111016980D02*
X134942689Y-110921742D01*
X134942689Y-110921742D02*
X134895069Y-110874123D01*
X134895069Y-111921742D02*
X134942689Y-111969361D01*
X134942689Y-111969361D02*
X134990308Y-111921742D01*
X134990308Y-111921742D02*
X134942689Y-111874123D01*
X134942689Y-111874123D02*
X134895069Y-111921742D01*
X134895069Y-111921742D02*
X134990308Y-111921742D01*
X134085546Y-112350313D02*
X134037927Y-112397932D01*
X134037927Y-112397932D02*
X133990308Y-112493170D01*
X133990308Y-112493170D02*
X133990308Y-112731265D01*
X133990308Y-112731265D02*
X134037927Y-112826503D01*
X134037927Y-112826503D02*
X134085546Y-112874122D01*
X134085546Y-112874122D02*
X134180784Y-112921741D01*
X134180784Y-112921741D02*
X134276022Y-112921741D01*
X134276022Y-112921741D02*
X134418879Y-112874122D01*
X134418879Y-112874122D02*
X134990308Y-112302694D01*
X134990308Y-112302694D02*
X134990308Y-112921741D01*
X133990308Y-113826503D02*
X133990308Y-113350313D01*
X133990308Y-113350313D02*
X134466498Y-113302694D01*
X134466498Y-113302694D02*
X134418879Y-113350313D01*
X134418879Y-113350313D02*
X134371260Y-113445551D01*
X134371260Y-113445551D02*
X134371260Y-113683646D01*
X134371260Y-113683646D02*
X134418879Y-113778884D01*
X134418879Y-113778884D02*
X134466498Y-113826503D01*
X134466498Y-113826503D02*
X134561736Y-113874122D01*
X134561736Y-113874122D02*
X134799831Y-113874122D01*
X134799831Y-113874122D02*
X134895069Y-113826503D01*
X134895069Y-113826503D02*
X134942689Y-113778884D01*
X134942689Y-113778884D02*
X134990308Y-113683646D01*
X134990308Y-113683646D02*
X134990308Y-113445551D01*
X134990308Y-113445551D02*
X134942689Y-113350313D01*
X134942689Y-113350313D02*
X134895069Y-113302694D01*
X133990308Y-114159837D02*
X134990308Y-114493170D01*
X134990308Y-114493170D02*
X133990308Y-114826503D01*
X134514117Y-116540789D02*
X134466498Y-116493170D01*
X134466498Y-116493170D02*
X134418879Y-116397932D01*
X134418879Y-116397932D02*
X134418879Y-116302694D01*
X134418879Y-116302694D02*
X134466498Y-116207456D01*
X134466498Y-116207456D02*
X134514117Y-116159837D01*
X134514117Y-116159837D02*
X134609355Y-116112218D01*
X134609355Y-116112218D02*
X134704593Y-116112218D01*
X134704593Y-116112218D02*
X134799831Y-116159837D01*
X134799831Y-116159837D02*
X134847450Y-116207456D01*
X134847450Y-116207456D02*
X134895069Y-116302694D01*
X134895069Y-116302694D02*
X134895069Y-116397932D01*
X134895069Y-116397932D02*
X134847450Y-116493170D01*
X134847450Y-116493170D02*
X134799831Y-116540789D01*
X134418879Y-116540789D02*
X134799831Y-116540789D01*
X134799831Y-116540789D02*
X134847450Y-116588408D01*
X134847450Y-116588408D02*
X134847450Y-116636027D01*
X134847450Y-116636027D02*
X134799831Y-116731266D01*
X134799831Y-116731266D02*
X134704593Y-116778885D01*
X134704593Y-116778885D02*
X134466498Y-116778885D01*
X134466498Y-116778885D02*
X134323641Y-116683647D01*
X134323641Y-116683647D02*
X134228403Y-116540789D01*
X134228403Y-116540789D02*
X134180784Y-116350313D01*
X134180784Y-116350313D02*
X134228403Y-116159837D01*
X134228403Y-116159837D02*
X134323641Y-116016980D01*
X134323641Y-116016980D02*
X134466498Y-115921742D01*
X134466498Y-115921742D02*
X134656974Y-115874123D01*
X134656974Y-115874123D02*
X134847450Y-115921742D01*
X134847450Y-115921742D02*
X134990308Y-116016980D01*
X134990308Y-116016980D02*
X135085546Y-116159837D01*
X135085546Y-116159837D02*
X135133165Y-116350313D01*
X135133165Y-116350313D02*
X135085546Y-116540789D01*
X135085546Y-116540789D02*
X134990308Y-116683647D01*
X133990308Y-118445551D02*
X133990308Y-117969361D01*
X133990308Y-117969361D02*
X134466498Y-117921742D01*
X134466498Y-117921742D02*
X134418879Y-117969361D01*
X134418879Y-117969361D02*
X134371260Y-118064599D01*
X134371260Y-118064599D02*
X134371260Y-118302694D01*
X134371260Y-118302694D02*
X134418879Y-118397932D01*
X134418879Y-118397932D02*
X134466498Y-118445551D01*
X134466498Y-118445551D02*
X134561736Y-118493170D01*
X134561736Y-118493170D02*
X134799831Y-118493170D01*
X134799831Y-118493170D02*
X134895069Y-118445551D01*
X134895069Y-118445551D02*
X134942689Y-118397932D01*
X134942689Y-118397932D02*
X134990308Y-118302694D01*
X134990308Y-118302694D02*
X134990308Y-118064599D01*
X134990308Y-118064599D02*
X134942689Y-117969361D01*
X134942689Y-117969361D02*
X134895069Y-117921742D01*
X133990308Y-119112218D02*
X133990308Y-119207456D01*
X133990308Y-119207456D02*
X134037927Y-119302694D01*
X134037927Y-119302694D02*
X134085546Y-119350313D01*
X134085546Y-119350313D02*
X134180784Y-119397932D01*
X134180784Y-119397932D02*
X134371260Y-119445551D01*
X134371260Y-119445551D02*
X134609355Y-119445551D01*
X134609355Y-119445551D02*
X134799831Y-119397932D01*
X134799831Y-119397932D02*
X134895069Y-119350313D01*
X134895069Y-119350313D02*
X134942689Y-119302694D01*
X134942689Y-119302694D02*
X134990308Y-119207456D01*
X134990308Y-119207456D02*
X134990308Y-119112218D01*
X134990308Y-119112218D02*
X134942689Y-119016980D01*
X134942689Y-119016980D02*
X134895069Y-118969361D01*
X134895069Y-118969361D02*
X134799831Y-118921742D01*
X134799831Y-118921742D02*
X134609355Y-118874123D01*
X134609355Y-118874123D02*
X134371260Y-118874123D01*
X134371260Y-118874123D02*
X134180784Y-118921742D01*
X134180784Y-118921742D02*
X134085546Y-118969361D01*
X134085546Y-118969361D02*
X134037927Y-119016980D01*
X134037927Y-119016980D02*
X133990308Y-119112218D01*
X134990308Y-120302694D02*
X134466498Y-120302694D01*
X134466498Y-120302694D02*
X134371260Y-120255075D01*
X134371260Y-120255075D02*
X134323641Y-120159837D01*
X134323641Y-120159837D02*
X134323641Y-119969361D01*
X134323641Y-119969361D02*
X134371260Y-119874123D01*
X134942689Y-120302694D02*
X134990308Y-120207456D01*
X134990308Y-120207456D02*
X134990308Y-119969361D01*
X134990308Y-119969361D02*
X134942689Y-119874123D01*
X134942689Y-119874123D02*
X134847450Y-119826504D01*
X134847450Y-119826504D02*
X134752212Y-119826504D01*
X134752212Y-119826504D02*
X134656974Y-119874123D01*
X134656974Y-119874123D02*
X134609355Y-119969361D01*
X134609355Y-119969361D02*
X134609355Y-120207456D01*
X134609355Y-120207456D02*
X134561736Y-120302694D01*
X134990308Y-120778885D02*
X134323641Y-120778885D01*
X134418879Y-120778885D02*
X134371260Y-120826504D01*
X134371260Y-120826504D02*
X134323641Y-120921742D01*
X134323641Y-120921742D02*
X134323641Y-121064599D01*
X134323641Y-121064599D02*
X134371260Y-121159837D01*
X134371260Y-121159837D02*
X134466498Y-121207456D01*
X134466498Y-121207456D02*
X134990308Y-121207456D01*
X134466498Y-121207456D02*
X134371260Y-121255075D01*
X134371260Y-121255075D02*
X134323641Y-121350313D01*
X134323641Y-121350313D02*
X134323641Y-121493170D01*
X134323641Y-121493170D02*
X134371260Y-121588409D01*
X134371260Y-121588409D02*
X134466498Y-121636028D01*
X134466498Y-121636028D02*
X134990308Y-121636028D01*
X134323641Y-122112218D02*
X135323641Y-122112218D01*
X134371260Y-122112218D02*
X134323641Y-122207456D01*
X134323641Y-122207456D02*
X134323641Y-122397932D01*
X134323641Y-122397932D02*
X134371260Y-122493170D01*
X134371260Y-122493170D02*
X134418879Y-122540789D01*
X134418879Y-122540789D02*
X134514117Y-122588408D01*
X134514117Y-122588408D02*
X134799831Y-122588408D01*
X134799831Y-122588408D02*
X134895069Y-122540789D01*
X134895069Y-122540789D02*
X134942689Y-122493170D01*
X134942689Y-122493170D02*
X134990308Y-122397932D01*
X134990308Y-122397932D02*
X134990308Y-122207456D01*
X134990308Y-122207456D02*
X134942689Y-122112218D01*
M02*
