%TF.GenerationSoftware,KiCad,Pcbnew,9.0.2*%
%TF.CreationDate,2025-11-13T14:06:28+01:00*%
%TF.ProjectId,current-meas,63757272-656e-4742-9d6d-6561732e6b69,rev?*%
%TF.SameCoordinates,Original*%
%TF.FileFunction,Legend,Top*%
%TF.FilePolarity,Positive*%
%FSLAX46Y46*%
G04 Gerber Fmt 4.6, Leading zero omitted, Abs format (unit mm)*
G04 Created by KiCad (PCBNEW 9.0.2) date 2025-11-13 14:06:28*
%MOMM*%
%LPD*%
G01*
G04 APERTURE LIST*
%ADD10C,0.150000*%
%ADD11C,0.120000*%
%ADD12C,0.254000*%
%ADD13C,0.000000*%
G04 APERTURE END LIST*
D10*
X146479794Y-101649819D02*
X146479794Y-100649819D01*
X146479794Y-100649819D02*
X146717889Y-100649819D01*
X146717889Y-100649819D02*
X146860746Y-100697438D01*
X146860746Y-100697438D02*
X146955984Y-100792676D01*
X146955984Y-100792676D02*
X147003603Y-100887914D01*
X147003603Y-100887914D02*
X147051222Y-101078390D01*
X147051222Y-101078390D02*
X147051222Y-101221247D01*
X147051222Y-101221247D02*
X147003603Y-101411723D01*
X147003603Y-101411723D02*
X146955984Y-101506961D01*
X146955984Y-101506961D02*
X146860746Y-101602200D01*
X146860746Y-101602200D02*
X146717889Y-101649819D01*
X146717889Y-101649819D02*
X146479794Y-101649819D01*
X148003603Y-101649819D02*
X147432175Y-101649819D01*
X147717889Y-101649819D02*
X147717889Y-100649819D01*
X147717889Y-100649819D02*
X147622651Y-100792676D01*
X147622651Y-100792676D02*
X147527413Y-100887914D01*
X147527413Y-100887914D02*
X147432175Y-100935533D01*
X145826222Y-108179580D02*
X145778603Y-108227200D01*
X145778603Y-108227200D02*
X145635746Y-108274819D01*
X145635746Y-108274819D02*
X145540508Y-108274819D01*
X145540508Y-108274819D02*
X145397651Y-108227200D01*
X145397651Y-108227200D02*
X145302413Y-108131961D01*
X145302413Y-108131961D02*
X145254794Y-108036723D01*
X145254794Y-108036723D02*
X145207175Y-107846247D01*
X145207175Y-107846247D02*
X145207175Y-107703390D01*
X145207175Y-107703390D02*
X145254794Y-107512914D01*
X145254794Y-107512914D02*
X145302413Y-107417676D01*
X145302413Y-107417676D02*
X145397651Y-107322438D01*
X145397651Y-107322438D02*
X145540508Y-107274819D01*
X145540508Y-107274819D02*
X145635746Y-107274819D01*
X145635746Y-107274819D02*
X145778603Y-107322438D01*
X145778603Y-107322438D02*
X145826222Y-107370057D01*
X146778603Y-108274819D02*
X146207175Y-108274819D01*
X146492889Y-108274819D02*
X146492889Y-107274819D01*
X146492889Y-107274819D02*
X146397651Y-107417676D01*
X146397651Y-107417676D02*
X146302413Y-107512914D01*
X146302413Y-107512914D02*
X146207175Y-107560533D01*
X147622708Y-99011666D02*
X147146517Y-99344999D01*
X147622708Y-99583094D02*
X146622708Y-99583094D01*
X146622708Y-99583094D02*
X146622708Y-99202142D01*
X146622708Y-99202142D02*
X146670327Y-99106904D01*
X146670327Y-99106904D02*
X146717946Y-99059285D01*
X146717946Y-99059285D02*
X146813184Y-99011666D01*
X146813184Y-99011666D02*
X146956041Y-99011666D01*
X146956041Y-99011666D02*
X147051279Y-99059285D01*
X147051279Y-99059285D02*
X147098898Y-99106904D01*
X147098898Y-99106904D02*
X147146517Y-99202142D01*
X147146517Y-99202142D02*
X147146517Y-99583094D01*
X146622708Y-98678332D02*
X146622708Y-98059285D01*
X146622708Y-98059285D02*
X147003660Y-98392618D01*
X147003660Y-98392618D02*
X147003660Y-98249761D01*
X147003660Y-98249761D02*
X147051279Y-98154523D01*
X147051279Y-98154523D02*
X147098898Y-98106904D01*
X147098898Y-98106904D02*
X147194136Y-98059285D01*
X147194136Y-98059285D02*
X147432231Y-98059285D01*
X147432231Y-98059285D02*
X147527469Y-98106904D01*
X147527469Y-98106904D02*
X147575089Y-98154523D01*
X147575089Y-98154523D02*
X147622708Y-98249761D01*
X147622708Y-98249761D02*
X147622708Y-98535475D01*
X147622708Y-98535475D02*
X147575089Y-98630713D01*
X147575089Y-98630713D02*
X147527469Y-98678332D01*
X152826222Y-105674819D02*
X152492889Y-105198628D01*
X152254794Y-105674819D02*
X152254794Y-104674819D01*
X152254794Y-104674819D02*
X152635746Y-104674819D01*
X152635746Y-104674819D02*
X152730984Y-104722438D01*
X152730984Y-104722438D02*
X152778603Y-104770057D01*
X152778603Y-104770057D02*
X152826222Y-104865295D01*
X152826222Y-104865295D02*
X152826222Y-105008152D01*
X152826222Y-105008152D02*
X152778603Y-105103390D01*
X152778603Y-105103390D02*
X152730984Y-105151009D01*
X152730984Y-105151009D02*
X152635746Y-105198628D01*
X152635746Y-105198628D02*
X152254794Y-105198628D01*
X153207175Y-104770057D02*
X153254794Y-104722438D01*
X153254794Y-104722438D02*
X153350032Y-104674819D01*
X153350032Y-104674819D02*
X153588127Y-104674819D01*
X153588127Y-104674819D02*
X153683365Y-104722438D01*
X153683365Y-104722438D02*
X153730984Y-104770057D01*
X153730984Y-104770057D02*
X153778603Y-104865295D01*
X153778603Y-104865295D02*
X153778603Y-104960533D01*
X153778603Y-104960533D02*
X153730984Y-105103390D01*
X153730984Y-105103390D02*
X153159556Y-105674819D01*
X153159556Y-105674819D02*
X153778603Y-105674819D01*
X151680984Y-108287319D02*
X151680984Y-109096842D01*
X151680984Y-109096842D02*
X151728603Y-109192080D01*
X151728603Y-109192080D02*
X151776222Y-109239700D01*
X151776222Y-109239700D02*
X151871460Y-109287319D01*
X151871460Y-109287319D02*
X152061936Y-109287319D01*
X152061936Y-109287319D02*
X152157174Y-109239700D01*
X152157174Y-109239700D02*
X152204793Y-109192080D01*
X152204793Y-109192080D02*
X152252412Y-109096842D01*
X152252412Y-109096842D02*
X152252412Y-108287319D01*
X153252412Y-109287319D02*
X152680984Y-109287319D01*
X152966698Y-109287319D02*
X152966698Y-108287319D01*
X152966698Y-108287319D02*
X152871460Y-108430176D01*
X152871460Y-108430176D02*
X152776222Y-108525414D01*
X152776222Y-108525414D02*
X152680984Y-108573033D01*
X149726222Y-114649819D02*
X149392889Y-114173628D01*
X149154794Y-114649819D02*
X149154794Y-113649819D01*
X149154794Y-113649819D02*
X149535746Y-113649819D01*
X149535746Y-113649819D02*
X149630984Y-113697438D01*
X149630984Y-113697438D02*
X149678603Y-113745057D01*
X149678603Y-113745057D02*
X149726222Y-113840295D01*
X149726222Y-113840295D02*
X149726222Y-113983152D01*
X149726222Y-113983152D02*
X149678603Y-114078390D01*
X149678603Y-114078390D02*
X149630984Y-114126009D01*
X149630984Y-114126009D02*
X149535746Y-114173628D01*
X149535746Y-114173628D02*
X149154794Y-114173628D01*
X150678603Y-114649819D02*
X150107175Y-114649819D01*
X150392889Y-114649819D02*
X150392889Y-113649819D01*
X150392889Y-113649819D02*
X150297651Y-113792676D01*
X150297651Y-113792676D02*
X150202413Y-113887914D01*
X150202413Y-113887914D02*
X150107175Y-113935533D01*
X152026222Y-99079580D02*
X151978603Y-99127200D01*
X151978603Y-99127200D02*
X151835746Y-99174819D01*
X151835746Y-99174819D02*
X151740508Y-99174819D01*
X151740508Y-99174819D02*
X151597651Y-99127200D01*
X151597651Y-99127200D02*
X151502413Y-99031961D01*
X151502413Y-99031961D02*
X151454794Y-98936723D01*
X151454794Y-98936723D02*
X151407175Y-98746247D01*
X151407175Y-98746247D02*
X151407175Y-98603390D01*
X151407175Y-98603390D02*
X151454794Y-98412914D01*
X151454794Y-98412914D02*
X151502413Y-98317676D01*
X151502413Y-98317676D02*
X151597651Y-98222438D01*
X151597651Y-98222438D02*
X151740508Y-98174819D01*
X151740508Y-98174819D02*
X151835746Y-98174819D01*
X151835746Y-98174819D02*
X151978603Y-98222438D01*
X151978603Y-98222438D02*
X152026222Y-98270057D01*
X152407175Y-98270057D02*
X152454794Y-98222438D01*
X152454794Y-98222438D02*
X152550032Y-98174819D01*
X152550032Y-98174819D02*
X152788127Y-98174819D01*
X152788127Y-98174819D02*
X152883365Y-98222438D01*
X152883365Y-98222438D02*
X152930984Y-98270057D01*
X152930984Y-98270057D02*
X152978603Y-98365295D01*
X152978603Y-98365295D02*
X152978603Y-98460533D01*
X152978603Y-98460533D02*
X152930984Y-98603390D01*
X152930984Y-98603390D02*
X152359556Y-99174819D01*
X152359556Y-99174819D02*
X152978603Y-99174819D01*
D11*
%TO.C,D1*%
X144857889Y-102195000D02*
X144857889Y-104195000D01*
X144857889Y-102195000D02*
X148867889Y-102195000D01*
X144857889Y-104195000D02*
X148867889Y-104195000D01*
%TO.C,C1*%
X146254141Y-105385000D02*
X145731637Y-105385000D01*
X146254141Y-106855000D02*
X145731637Y-106855000D01*
%TO.C,R3*%
X148257889Y-98642936D02*
X148257889Y-99097064D01*
X149727889Y-98642936D02*
X149727889Y-99097064D01*
%TO.C,R2*%
X151740825Y-102685000D02*
X152194953Y-102685000D01*
X151740825Y-104155000D02*
X152194953Y-104155000D01*
%TO.C,U1*%
X148257889Y-107095000D02*
X148257889Y-106295000D01*
X148257889Y-107095000D02*
X148257889Y-107895000D01*
X151377889Y-107095000D02*
X151377889Y-106295000D01*
X151377889Y-107095000D02*
X151377889Y-107895000D01*
X151657889Y-106035000D02*
X151327889Y-105795000D01*
X151657889Y-105555000D01*
X151657889Y-106035000D01*
G36*
X151657889Y-106035000D02*
G01*
X151327889Y-105795000D01*
X151657889Y-105555000D01*
X151657889Y-106035000D01*
G37*
%TO.C,J2*%
X145772889Y-93015000D02*
X145772889Y-95775000D01*
X150962889Y-93015000D02*
X145772889Y-93015000D01*
X150962889Y-93015000D02*
X150962889Y-95775000D01*
X150962889Y-95775000D02*
X145772889Y-95775000D01*
X152232889Y-93015000D02*
X153612889Y-93015000D01*
X153612889Y-93015000D02*
X153612889Y-94395000D01*
D12*
%TO.C,J1*%
X139705389Y-114870000D02*
X139705389Y-133520000D01*
X139705389Y-114870000D02*
X160025389Y-114870000D01*
X139705389Y-116242500D02*
X143096389Y-116242500D01*
X139705389Y-127245500D02*
X142904389Y-127245500D01*
X139705389Y-129291000D02*
X160025389Y-129291000D01*
X139705389Y-133520000D02*
X160025389Y-133520000D01*
X143350389Y-130570000D02*
X143769389Y-130151000D01*
X143350389Y-133519000D02*
X143350389Y-130570000D01*
X143769389Y-130151000D02*
X145674389Y-130151000D01*
X145674389Y-130151000D02*
X146179889Y-130656500D01*
X146179889Y-130656500D02*
X146179889Y-133519000D01*
X146474389Y-116242500D02*
X153256389Y-116242500D01*
X146666389Y-127245500D02*
X153064389Y-127245500D01*
X153510389Y-130570000D02*
X153929389Y-130151000D01*
X153510389Y-133519000D02*
X153510389Y-130570000D01*
X153929389Y-130151000D02*
X155834389Y-130151000D01*
X155834389Y-130151000D02*
X156339889Y-130656500D01*
X156339889Y-130656500D02*
X156339889Y-133519000D01*
X156634389Y-116242500D02*
X160025389Y-116242500D01*
X156826389Y-127245500D02*
X160025389Y-127245500D01*
X160025389Y-114870000D02*
X160025389Y-133520000D01*
D13*
G36*
X145547389Y-131675000D02*
G01*
X144023389Y-131675000D01*
X144785389Y-130532000D01*
X145547389Y-131675000D01*
G37*
G36*
X155707389Y-131675000D02*
G01*
X154183389Y-131675000D01*
X154945389Y-130532000D01*
X155707389Y-131675000D01*
G37*
G36*
X144912389Y-133072000D02*
G01*
X144658389Y-133072000D01*
X144658389Y-131675000D01*
X144912389Y-131675000D01*
X144912389Y-133072000D01*
G37*
G36*
X155072389Y-133072000D02*
G01*
X154818389Y-133072000D01*
X154818389Y-131675000D01*
X155072389Y-131675000D01*
X155072389Y-133072000D01*
G37*
D11*
%TO.C,R1*%
X152069953Y-109885000D02*
X147715825Y-109885000D01*
X152069953Y-113305000D02*
X147715825Y-113305000D01*
%TO.C,C2*%
X151931637Y-99810000D02*
X152454141Y-99810000D01*
X151931637Y-101280000D02*
X152454141Y-101280000D01*
%TD*%
M02*
