%TF.GenerationSoftware,KiCad,Pcbnew,9.0.2*%
%TF.CreationDate,2025-11-13T14:06:28+01:00*%
%TF.ProjectId,current-meas,63757272-656e-4742-9d6d-6561732e6b69,rev?*%
%TF.SameCoordinates,Original*%
%TF.FileFunction,Soldermask,Top*%
%TF.FilePolarity,Negative*%
%FSLAX46Y46*%
G04 Gerber Fmt 4.6, Leading zero omitted, Abs format (unit mm)*
G04 Created by KiCad (PCBNEW 9.0.2) date 2025-11-13 14:06:28*
%MOMM*%
%LPD*%
G01*
G04 APERTURE LIST*
G04 Aperture macros list*
%AMRoundRect*
0 Rectangle with rounded corners*
0 $1 Rounding radius*
0 $2 $3 $4 $5 $6 $7 $8 $9 X,Y pos of 4 corners*
0 Add a 4 corners polygon primitive as box body*
4,1,4,$2,$3,$4,$5,$6,$7,$8,$9,$2,$3,0*
0 Add four circle primitives for the rounded corners*
1,1,$1+$1,$2,$3*
1,1,$1+$1,$4,$5*
1,1,$1+$1,$6,$7*
1,1,$1+$1,$8,$9*
0 Add four rect primitives between the rounded corners*
20,1,$1+$1,$2,$3,$4,$5,0*
20,1,$1+$1,$4,$5,$6,$7,0*
20,1,$1+$1,$6,$7,$8,$9,0*
20,1,$1+$1,$8,$9,$2,$3,0*%
G04 Aperture macros list end*
%ADD10C,0.200000*%
%ADD11C,0.000000*%
%ADD12RoundRect,0.225000X-0.225000X-0.375000X0.225000X-0.375000X0.225000X0.375000X-0.225000X0.375000X0*%
%ADD13RoundRect,0.250000X0.250000X0.475000X-0.250000X0.475000X-0.250000X-0.475000X0.250000X-0.475000X0*%
%ADD14RoundRect,0.250000X-0.450000X0.262500X-0.450000X-0.262500X0.450000X-0.262500X0.450000X0.262500X0*%
%ADD15RoundRect,0.250000X-0.262500X-0.450000X0.262500X-0.450000X0.262500X0.450000X-0.262500X0.450000X0*%
%ADD16RoundRect,0.150000X-0.150000X0.512500X-0.150000X-0.512500X0.150000X-0.512500X0.150000X0.512500X0*%
%ADD17C,2.700000*%
%ADD18R,1.700000X1.700000*%
%ADD19C,1.700000*%
%ADD20C,3.300000*%
%ADD21RoundRect,0.250000X0.362500X1.425000X-0.362500X1.425000X-0.362500X-1.425000X0.362500X-1.425000X0*%
%ADD22RoundRect,0.250000X-0.250000X-0.475000X0.250000X-0.475000X0.250000X0.475000X-0.250000X0.475000X0*%
G04 APERTURE END LIST*
D10*
X153875000Y-115475000D02*
X153874890Y-115464050D01*
X153874759Y-115453132D01*
X153874610Y-115442246D01*
X153874441Y-115431393D01*
X153874252Y-115420571D01*
X153874044Y-115409781D01*
X153873816Y-115399022D01*
X153873570Y-115388296D01*
X153873303Y-115377600D01*
X153873018Y-115366937D01*
X153872714Y-115356305D01*
X153872391Y-115345704D01*
X153872048Y-115335135D01*
X153871687Y-115324597D01*
X153871306Y-115314090D01*
X153870907Y-115303615D01*
X153870489Y-115293171D01*
X153870052Y-115282758D01*
X153869597Y-115272376D01*
X153869123Y-115262025D01*
X153868630Y-115251704D01*
X153868119Y-115241415D01*
X153867590Y-115231156D01*
X153867042Y-115220929D01*
X153866475Y-115210731D01*
X153865891Y-115200565D01*
X153865288Y-115190429D01*
X153864667Y-115180324D01*
X153864028Y-115170248D01*
X153863370Y-115160204D01*
X153862695Y-115150189D01*
X153862002Y-115140205D01*
X153861291Y-115130251D01*
X153860562Y-115120328D01*
X153859815Y-115110434D01*
X153859050Y-115100570D01*
X153858268Y-115090736D01*
X153857468Y-115080933D01*
X153856650Y-115071158D01*
X153855815Y-115061415D01*
X153854962Y-115051700D01*
X153854092Y-115042016D01*
X153853205Y-115032360D01*
X153852300Y-115022735D01*
X153851378Y-115013138D01*
X153850439Y-115003572D01*
X153849482Y-114994034D01*
X153848509Y-114984527D01*
X153847518Y-114975048D01*
X153846510Y-114965599D01*
X153845485Y-114956178D01*
X153844444Y-114946787D01*
X153843385Y-114937424D01*
X153842310Y-114928092D01*
X153841218Y-114918787D01*
X153840109Y-114909512D01*
X153838984Y-114900265D01*
X153837842Y-114891047D01*
X153836683Y-114881858D01*
X153835508Y-114872698D01*
X153834316Y-114863565D01*
X153833108Y-114854462D01*
X153831884Y-114845386D01*
X153830643Y-114836340D01*
X153829386Y-114827321D01*
X153828113Y-114818332D01*
X153826824Y-114809370D01*
X153825519Y-114800437D01*
X153824197Y-114791531D01*
X153822860Y-114782654D01*
X153821506Y-114773804D01*
X153820137Y-114764983D01*
X153818751Y-114756189D01*
X153817350Y-114747424D01*
X153815933Y-114738685D01*
X153814501Y-114729976D01*
X153813052Y-114721293D01*
X153811588Y-114712639D01*
X153810109Y-114704010D01*
X153808614Y-114695411D01*
X153807103Y-114686838D01*
X153805577Y-114678294D01*
X153804036Y-114669775D01*
X153802479Y-114661286D01*
X153800907Y-114652822D01*
X153799320Y-114644387D01*
X153797717Y-114635977D01*
X153796100Y-114627596D01*
X153794467Y-114619241D01*
X153792819Y-114610914D01*
X153791156Y-114602612D01*
X153789478Y-114594339D01*
X153787785Y-114586090D01*
X153786078Y-114577871D01*
X153784355Y-114569676D01*
X153782618Y-114561510D01*
X153780865Y-114553368D01*
X153779099Y-114545255D01*
X153777317Y-114537166D01*
X153775521Y-114529106D01*
X153773710Y-114521070D01*
X153771885Y-114513063D01*
X153770045Y-114505079D01*
X153768191Y-114497124D01*
X153766323Y-114489193D01*
X153764440Y-114481290D01*
X153762542Y-114473411D01*
X153760631Y-114465561D01*
X153758705Y-114457734D01*
X153756765Y-114449935D01*
X153754811Y-114442159D01*
X153752843Y-114434412D01*
X153750861Y-114426688D01*
X153748865Y-114418992D01*
X153746854Y-114411320D01*
X153744830Y-114403675D01*
X153742792Y-114396054D01*
X153740740Y-114388460D01*
X153738674Y-114380889D01*
X153736595Y-114373347D01*
X153734502Y-114365826D01*
X153732395Y-114358334D01*
X153730274Y-114350865D01*
X153728140Y-114343423D01*
X153725992Y-114336003D01*
X153723831Y-114328612D01*
X153721656Y-114321243D01*
X153719468Y-114313901D01*
X153717266Y-114306581D01*
X153715052Y-114299290D01*
X153712823Y-114292020D01*
X153710582Y-114284777D01*
X153708327Y-114277557D01*
X153706059Y-114270364D01*
X153703778Y-114263193D01*
X153701484Y-114256049D01*
X153699176Y-114248927D01*
X153696856Y-114241832D01*
X153694522Y-114234759D01*
X153692176Y-114227713D01*
X153689816Y-114220689D01*
X153687445Y-114213691D01*
X153685059Y-114206715D01*
X153682661Y-114199766D01*
X153680250Y-114192838D01*
X153677827Y-114185938D01*
X153675390Y-114179058D01*
X153672942Y-114172205D01*
X153670480Y-114165373D01*
X153668006Y-114158568D01*
X153665519Y-114151784D01*
X153663020Y-114145027D01*
X153660508Y-114138290D01*
X153657984Y-114131581D01*
X153655447Y-114124891D01*
X153652899Y-114118229D01*
X153650337Y-114111586D01*
X153647764Y-114104971D01*
X153645177Y-114098376D01*
X153642579Y-114091807D01*
X153639968Y-114085259D01*
X153637346Y-114078737D01*
X153634711Y-114072235D01*
X153632065Y-114065760D01*
X153629405Y-114059304D01*
X153626735Y-114052875D01*
X153624051Y-114046466D01*
X153621356Y-114040083D01*
X153618649Y-114033720D01*
X153615931Y-114027383D01*
X153613199Y-114021066D01*
X153610457Y-114014775D01*
X153607702Y-114008503D01*
X153604937Y-114002258D01*
X153602158Y-113996032D01*
X153599369Y-113989832D01*
X153596567Y-113983651D01*
X153593755Y-113977497D01*
X153590929Y-113971361D01*
X153588094Y-113965252D01*
X153585246Y-113959161D01*
X153582387Y-113953097D01*
X153579516Y-113947051D01*
X153576634Y-113941032D01*
X153573740Y-113935031D01*
X153570836Y-113929056D01*
X153567918Y-113923100D01*
X153564992Y-113917169D01*
X153562051Y-113911257D01*
X153559102Y-113905371D01*
X153556140Y-113899503D01*
X153553168Y-113893661D01*
X153550183Y-113887837D01*
X153547189Y-113882039D01*
X153541165Y-113870505D01*
X153535098Y-113859059D01*
X153528986Y-113847699D01*
X153522830Y-113836427D01*
X153516631Y-113825240D01*
X153510388Y-113814141D01*
X153504103Y-113803127D01*
X153497774Y-113792198D01*
X153491403Y-113781355D01*
X153484989Y-113770598D01*
X153478534Y-113759925D01*
X153472036Y-113749336D01*
X153465496Y-113738832D01*
X153458915Y-113728412D01*
X153452293Y-113718076D01*
X153445629Y-113707823D01*
X153438924Y-113697653D01*
X153432179Y-113687567D01*
X153425393Y-113677563D01*
X153418567Y-113667642D01*
X153411701Y-113657803D01*
X153404795Y-113648047D01*
X153397850Y-113638372D01*
X153390865Y-113628779D01*
X153383840Y-113619267D01*
X153376777Y-113609837D01*
X153369675Y-113600487D01*
X153362534Y-113591219D01*
X153355355Y-113582031D01*
X153348137Y-113572924D01*
X153340882Y-113563897D01*
X153333589Y-113554951D01*
X153326258Y-113546084D01*
X153318890Y-113537297D01*
X153311485Y-113528590D01*
X153304043Y-113519962D01*
X153296564Y-113511414D01*
X153289048Y-113502945D01*
X153281497Y-113494555D01*
X153273909Y-113486245D01*
X153266285Y-113478013D01*
X153258626Y-113469860D01*
X153250932Y-113461785D01*
X153243202Y-113453790D01*
X153235438Y-113445872D01*
X153227639Y-113438034D01*
X153219805Y-113430273D01*
X153211937Y-113422591D01*
X153204036Y-113414987D01*
X153196101Y-113407461D01*
X153188132Y-113400014D01*
X153180131Y-113392644D01*
X153172096Y-113385352D01*
X153164030Y-113378139D01*
X153155931Y-113371004D01*
X153147800Y-113363946D01*
X153139637Y-113356967D01*
X153131444Y-113350065D01*
X153123219Y-113343242D01*
X153114964Y-113336497D01*
X153106678Y-113329830D01*
X153098363Y-113323241D01*
X153090018Y-113316730D01*
X153081644Y-113310297D01*
X153073242Y-113303943D01*
X153064811Y-113297667D01*
X153056352Y-113291470D01*
X153047866Y-113285351D01*
X153039353Y-113279311D01*
X153030813Y-113273350D01*
X153022248Y-113267468D01*
X153013657Y-113261664D01*
X153005041Y-113255940D01*
X152996401Y-113250296D01*
X152987737Y-113244730D01*
X152979050Y-113239245D01*
X152970341Y-113233839D01*
X152961609Y-113228513D01*
X152952857Y-113223268D01*
X152944084Y-113218103D01*
X152935291Y-113213019D01*
X152926479Y-113208015D01*
X152917649Y-113203093D01*
X152908802Y-113198252D01*
X152899939Y-113193493D01*
X152891060Y-113188816D01*
X152882166Y-113184221D01*
X152873259Y-113179708D01*
X152864340Y-113175279D01*
X152855409Y-113170932D01*
X152846468Y-113166669D01*
X152837518Y-113162489D01*
X152828561Y-113158394D01*
X152819596Y-113154383D01*
X152810627Y-113150457D01*
X152801655Y-113146616D01*
X152792680Y-113142860D01*
X152783705Y-113139190D01*
X152774731Y-113135607D01*
X152765760Y-113132110D01*
X152756794Y-113128701D01*
X152747834Y-113125378D01*
X152738883Y-113122144D01*
X152729943Y-113118998D01*
X152721016Y-113115941D01*
X152712104Y-113112972D01*
X152703211Y-113110094D01*
X152694337Y-113107305D01*
X152685486Y-113104607D01*
X152676662Y-113101999D01*
X152667866Y-113099483D01*
X152659102Y-113097058D01*
X152650373Y-113094725D01*
X152641682Y-113092484D01*
X152633033Y-113090336D01*
X152624430Y-113088281D01*
X152615877Y-113086320D01*
X152607378Y-113084451D01*
X152598936Y-113082677D01*
X152590557Y-113080997D01*
X152582245Y-113079411D01*
X152574004Y-113077919D01*
X152565841Y-113076521D01*
X152557760Y-113075218D01*
X152549767Y-113074010D01*
X152541867Y-113072895D01*
X152537950Y-113072372D01*
X152534067Y-113071874D01*
X152530202Y-113071398D01*
X152526372Y-113070947D01*
X152522562Y-113070517D01*
X152518788Y-113070112D01*
X152515037Y-113069730D01*
X152511323Y-113069371D01*
X152507634Y-113069034D01*
X152503982Y-113068721D01*
X152500359Y-113068430D01*
X152496774Y-113068162D01*
X152493219Y-113067916D01*
X152489703Y-113067693D01*
X152486221Y-113067491D01*
X152482778Y-113067312D01*
X152479372Y-113067155D01*
X152476006Y-113067020D01*
X152472679Y-113066905D01*
X152469394Y-113066813D01*
X152466149Y-113066741D01*
X152462948Y-113066690D01*
X152459790Y-113066660D01*
X152456675Y-113066650D01*
X152453608Y-113066660D01*
X152450584Y-113066689D01*
X152447609Y-113066738D01*
X152444679Y-113066807D01*
X152441802Y-113066894D01*
X152438969Y-113066999D01*
X152436190Y-113067122D01*
X152433458Y-113067264D01*
X152430782Y-113067422D01*
X152428152Y-113067597D01*
X152425581Y-113067789D01*
X152423056Y-113067997D01*
X152420593Y-113068220D01*
X152418175Y-113068459D01*
X152415821Y-113068711D01*
X152413513Y-113068979D01*
X152411270Y-113069259D01*
X152409073Y-113069554D01*
X152406942Y-113069860D01*
X152404856Y-113070179D01*
X152402839Y-113070508D01*
X152400865Y-113070851D01*
X152398961Y-113071201D01*
X152397100Y-113071564D01*
X152395309Y-113071934D01*
X152393560Y-113072315D01*
X152391881Y-113072702D01*
X152390244Y-113073100D01*
X152388676Y-113073501D01*
X152387149Y-113073913D01*
X152385690Y-113074326D01*
X152384272Y-113074750D01*
X152382920Y-113075174D01*
X152381608Y-113075607D01*
X152380361Y-113076039D01*
X152379152Y-113076480D01*
X152378007Y-113076919D01*
X152376898Y-113077365D01*
X152375851Y-113077808D01*
X152374839Y-113078258D01*
X152373886Y-113078704D01*
X152372967Y-113079156D01*
X152372104Y-113079603D01*
X152371274Y-113080055D01*
X152370497Y-113080502D01*
X152369752Y-113080953D01*
X152369057Y-113081398D01*
X152368391Y-113081847D01*
X152367773Y-113082289D01*
X152367183Y-113082735D01*
X152366637Y-113083174D01*
X152366119Y-113083616D01*
X152365641Y-113084050D01*
X152365189Y-113084488D01*
X152364774Y-113084918D01*
X152364384Y-113085350D01*
X152364029Y-113085775D01*
X152363697Y-113086203D01*
X152363396Y-113086624D01*
X152363119Y-113087047D01*
X152362870Y-113087463D01*
X152362643Y-113087881D01*
X152362442Y-113088294D01*
X152362262Y-113088709D01*
X152362106Y-113089119D01*
X152361971Y-113089532D01*
X152361858Y-113089940D01*
X152361766Y-113090351D01*
X152361695Y-113090759D01*
X152361643Y-113091170D01*
X152361612Y-113091580D01*
X152361601Y-113091991D01*
X152361639Y-113092818D01*
X152361758Y-113093654D01*
X152361960Y-113094501D01*
X152362249Y-113095363D01*
X152362629Y-113096243D01*
X152363105Y-113097143D01*
X152363686Y-113098064D01*
X152364377Y-113099009D01*
X152365187Y-113099980D01*
X152366125Y-113100976D01*
X152367200Y-113102000D01*
X152368422Y-113103050D01*
X152369800Y-113104128D01*
X152371345Y-113105233D01*
X152373068Y-113106364D01*
X152374977Y-113107521D01*
X152377084Y-113108703D01*
X152379400Y-113109907D01*
X152381933Y-113111133D01*
X152384694Y-113112379D01*
X152387693Y-113113643D01*
X152390938Y-113114922D01*
X152394440Y-113116215D01*
X152398207Y-113117519D01*
X152402247Y-113118831D01*
X152406569Y-113120149D01*
X152411179Y-113121470D01*
X152416085Y-113122791D01*
X152421294Y-113124110D01*
X152425000Y-113125000D01*
X156375000Y-112075000D02*
X156374990Y-112065752D01*
X156374960Y-112056532D01*
X156374910Y-112047354D01*
X156374841Y-112038205D01*
X156374751Y-112029098D01*
X156374642Y-112020018D01*
X156374514Y-112010981D01*
X156374365Y-112001971D01*
X156374198Y-111993003D01*
X156374011Y-111984062D01*
X156373805Y-111975162D01*
X156373579Y-111966290D01*
X156373335Y-111957458D01*
X156373071Y-111948654D01*
X156372789Y-111939890D01*
X156372487Y-111931153D01*
X156372167Y-111922456D01*
X156371828Y-111913786D01*
X156371470Y-111905156D01*
X156371094Y-111896552D01*
X156370699Y-111887988D01*
X156370285Y-111879450D01*
X156369853Y-111870951D01*
X156369403Y-111862479D01*
X156368934Y-111854045D01*
X156368447Y-111845638D01*
X156367942Y-111837269D01*
X156367419Y-111828925D01*
X156366878Y-111820620D01*
X156366319Y-111812341D01*
X156365742Y-111804099D01*
X156365147Y-111795883D01*
X156364535Y-111787705D01*
X156363904Y-111779552D01*
X156363256Y-111771436D01*
X156362591Y-111763345D01*
X156361908Y-111755291D01*
X156361207Y-111747262D01*
X156360489Y-111739270D01*
X156359754Y-111731302D01*
X156359002Y-111723371D01*
X156358232Y-111715465D01*
X156357445Y-111707594D01*
X156356641Y-111699748D01*
X156355821Y-111691937D01*
X156354982Y-111684151D01*
X156354128Y-111676400D01*
X156353256Y-111668673D01*
X156352368Y-111660982D01*
X156351463Y-111653314D01*
X156350541Y-111645681D01*
X156349602Y-111638072D01*
X156348648Y-111630497D01*
X156347676Y-111622946D01*
X156346688Y-111615429D01*
X156345684Y-111607935D01*
X156344663Y-111600476D01*
X156343626Y-111593039D01*
X156342573Y-111585636D01*
X156341504Y-111578257D01*
X156340419Y-111570910D01*
X156339317Y-111563587D01*
X156338200Y-111556296D01*
X156337066Y-111549029D01*
X156335917Y-111541794D01*
X156334751Y-111534581D01*
X156333570Y-111527401D01*
X156332373Y-111520244D01*
X156331161Y-111513118D01*
X156329932Y-111506015D01*
X156328689Y-111498944D01*
X156327429Y-111491895D01*
X156326155Y-111484878D01*
X156324864Y-111477882D01*
X156323559Y-111470918D01*
X156322237Y-111463976D01*
X156320901Y-111457064D01*
X156319549Y-111450175D01*
X156318182Y-111443315D01*
X156316800Y-111436478D01*
X156315403Y-111429671D01*
X156313990Y-111422886D01*
X156312563Y-111416130D01*
X156311120Y-111409396D01*
X156309663Y-111402691D01*
X156308190Y-111396009D01*
X156306703Y-111389355D01*
X156305200Y-111382722D01*
X156303684Y-111376119D01*
X156302152Y-111369537D01*
X156300606Y-111362983D01*
X156299044Y-111356451D01*
X156297469Y-111349946D01*
X156295878Y-111343463D01*
X156294273Y-111337008D01*
X156292653Y-111330574D01*
X156291020Y-111324167D01*
X156289371Y-111317782D01*
X156287708Y-111311423D01*
X156286031Y-111305086D01*
X156284339Y-111298776D01*
X156282633Y-111292486D01*
X156280913Y-111286223D01*
X156279178Y-111279980D01*
X156277430Y-111273764D01*
X156275667Y-111267569D01*
X156273890Y-111261400D01*
X156272098Y-111255251D01*
X156270294Y-111249128D01*
X156268474Y-111243025D01*
X156266641Y-111236948D01*
X156264793Y-111230891D01*
X156262932Y-111224859D01*
X156261057Y-111218848D01*
X156259168Y-111212861D01*
X156257265Y-111206895D01*
X156255348Y-111200953D01*
X156253417Y-111195031D01*
X156251473Y-111189134D01*
X156249514Y-111183256D01*
X156247542Y-111177402D01*
X156245556Y-111171569D01*
X156243557Y-111165759D01*
X156241544Y-111159969D01*
X156239517Y-111154202D01*
X156237477Y-111148455D01*
X156235423Y-111142732D01*
X156233355Y-111137027D01*
X156231274Y-111131346D01*
X156229179Y-111125684D01*
X156227071Y-111120045D01*
X156224949Y-111114426D01*
X156222815Y-111108829D01*
X156220666Y-111103251D01*
X156218504Y-111097695D01*
X156216328Y-111092159D01*
X156214140Y-111086644D01*
X156211937Y-111081149D01*
X156209722Y-111075675D01*
X156207492Y-111070220D01*
X156205250Y-111064787D01*
X156202994Y-111059372D01*
X156200726Y-111053979D01*
X156198443Y-111048605D01*
X156196148Y-111043251D01*
X156193839Y-111037916D01*
X156191517Y-111032602D01*
X156189182Y-111027307D01*
X156186833Y-111022032D01*
X156184471Y-111016776D01*
X156182097Y-111011539D01*
X156179708Y-111006322D01*
X156177307Y-111001124D01*
X156174892Y-110995945D01*
X156172465Y-110990785D01*
X156170024Y-110985644D01*
X156167570Y-110980522D01*
X156165103Y-110975418D01*
X156162623Y-110970334D01*
X156160129Y-110965268D01*
X156157622Y-110960221D01*
X156155103Y-110955192D01*
X156152570Y-110950181D01*
X156150024Y-110945189D01*
X156147465Y-110940215D01*
X156144893Y-110935260D01*
X156142307Y-110930322D01*
X156139709Y-110925403D01*
X156137097Y-110920501D01*
X156134473Y-110915617D01*
X156131835Y-110910752D01*
X156129184Y-110905903D01*
X156126520Y-110901073D01*
X156123843Y-110896260D01*
X156121153Y-110891465D01*
X156118449Y-110886687D01*
X156115733Y-110881926D01*
X156113003Y-110877183D01*
X156110260Y-110872457D01*
X156107504Y-110867748D01*
X156104735Y-110863056D01*
X156101953Y-110858382D01*
X156099158Y-110853724D01*
X156096349Y-110849083D01*
X156093527Y-110844459D01*
X156090693Y-110839852D01*
X156087844Y-110835261D01*
X156084983Y-110830687D01*
X156082108Y-110826130D01*
X156079221Y-110821589D01*
X156076320Y-110817064D01*
X156073406Y-110812556D01*
X156070478Y-110808064D01*
X156067537Y-110803589D01*
X156064583Y-110799129D01*
X156061616Y-110794686D01*
X156058635Y-110790258D01*
X156055641Y-110785847D01*
X156052633Y-110781451D01*
X156049613Y-110777072D01*
X156046578Y-110772707D01*
X156043531Y-110768360D01*
X156040470Y-110764026D01*
X156037396Y-110759710D01*
X156031207Y-110751123D01*
X156024963Y-110742597D01*
X156018666Y-110734132D01*
X156012314Y-110725729D01*
X156005907Y-110717385D01*
X155999446Y-110709101D01*
X155992930Y-110700877D01*
X155986358Y-110692712D01*
X155979731Y-110684605D01*
X155973049Y-110676556D01*
X155966310Y-110668565D01*
X155959515Y-110660631D01*
X155952664Y-110652754D01*
X155945756Y-110644934D01*
X155938791Y-110637170D01*
X155931769Y-110629461D01*
X155924689Y-110621808D01*
X155917550Y-110614209D01*
X155910354Y-110606665D01*
X155903099Y-110599176D01*
X155895785Y-110591740D01*
X155888411Y-110584358D01*
X155880978Y-110577029D01*
X155873485Y-110569753D01*
X155865931Y-110562530D01*
X155858316Y-110555359D01*
X155850639Y-110548240D01*
X155842901Y-110541172D01*
X155835101Y-110534156D01*
X155827238Y-110527191D01*
X155819312Y-110520277D01*
X155811322Y-110513414D01*
X155803269Y-110506600D01*
X155795150Y-110499837D01*
X155786967Y-110493123D01*
X155778718Y-110486460D01*
X155770403Y-110479845D01*
X155762021Y-110473279D01*
X155753572Y-110466763D01*
X155745055Y-110460295D01*
X155736470Y-110453875D01*
X155727816Y-110447504D01*
X155719092Y-110441181D01*
X155710299Y-110434905D01*
X155701434Y-110428677D01*
X155692499Y-110422497D01*
X155683491Y-110416364D01*
X155674410Y-110410279D01*
X155665256Y-110404240D01*
X155656028Y-110398248D01*
X155646726Y-110392303D01*
X155637348Y-110386405D01*
X155627893Y-110380553D01*
X155618362Y-110374747D01*
X155608753Y-110368988D01*
X155599066Y-110363275D01*
X155589299Y-110357608D01*
X155579452Y-110351987D01*
X155569525Y-110346411D01*
X155559516Y-110340882D01*
X155549424Y-110335398D01*
X155539249Y-110329960D01*
X155528989Y-110324567D01*
X155518645Y-110319220D01*
X155508214Y-110313919D01*
X155497697Y-110308662D01*
X155487091Y-110303452D01*
X155476397Y-110298286D01*
X155465612Y-110293166D01*
X155454737Y-110288091D01*
X155443770Y-110283062D01*
X155432710Y-110278078D01*
X155421556Y-110273139D01*
X155410306Y-110268245D01*
X155398961Y-110263397D01*
X155387518Y-110258593D01*
X155375976Y-110253836D01*
X155364335Y-110249123D01*
X155352593Y-110244456D01*
X155340749Y-110239834D01*
X155328801Y-110235258D01*
X155316749Y-110230727D01*
X155304591Y-110226242D01*
X155292326Y-110221802D01*
X155279951Y-110217408D01*
X155267467Y-110213060D01*
X155254871Y-110208757D01*
X155242163Y-110204501D01*
X155229339Y-110200290D01*
X155216400Y-110196125D01*
X155203343Y-110192006D01*
X155190167Y-110187933D01*
X155176870Y-110183907D01*
X155163451Y-110179927D01*
X155149907Y-110175994D01*
X155136238Y-110172107D01*
X155122440Y-110168267D01*
X155108513Y-110164473D01*
X155094454Y-110160727D01*
X155080261Y-110157027D01*
X155065933Y-110153375D01*
X155051467Y-110149770D01*
X155036861Y-110146213D01*
X155022112Y-110142703D01*
X155007220Y-110139241D01*
X154992180Y-110135827D01*
X154976992Y-110132460D01*
X154961652Y-110129142D01*
X154946157Y-110125872D01*
X154930505Y-110122651D01*
X154914694Y-110119478D01*
X154898720Y-110116355D01*
X154882581Y-110113280D01*
X154866272Y-110110254D01*
X154849793Y-110107278D01*
X154833138Y-110104351D01*
X154816304Y-110101474D01*
X154799289Y-110098646D01*
X154782087Y-110095869D01*
X154764696Y-110093142D01*
X154747112Y-110090466D01*
X154729330Y-110087840D01*
X154711345Y-110085264D01*
X154693154Y-110082740D01*
X154674752Y-110080267D01*
X154656133Y-110077846D01*
X154637292Y-110075476D01*
X154618225Y-110073158D01*
X154598924Y-110070892D01*
X154579384Y-110068678D01*
X154559599Y-110066517D01*
X154539562Y-110064408D01*
X154519266Y-110062352D01*
X154498703Y-110060350D01*
X154477865Y-110058400D01*
X154456744Y-110056505D01*
X154435331Y-110054663D01*
X154413616Y-110052875D01*
X154391589Y-110051141D01*
X154369239Y-110049462D01*
X154346555Y-110047837D01*
X154323523Y-110046268D01*
X154300129Y-110044753D01*
X154276361Y-110043294D01*
X154252200Y-110041891D01*
X154227631Y-110040544D01*
X154202633Y-110039253D01*
X154177187Y-110038018D01*
X154151270Y-110036840D01*
X154124857Y-110035719D01*
X154097920Y-110034656D01*
X154070428Y-110033650D01*
X154042346Y-110032702D01*
X154013637Y-110031812D01*
X153984255Y-110030980D01*
X153954150Y-110030207D01*
X153923265Y-110029494D01*
X153891532Y-110028840D01*
X153858872Y-110028246D01*
X153825192Y-110027712D01*
X153790378Y-110027239D01*
X153754293Y-110026828D01*
X153716764Y-110026479D01*
X153677572Y-110026193D01*
X153636427Y-110025971D01*
X153592937Y-110025814D01*
X153546539Y-110025724D01*
X153496381Y-110025704D01*
X153441038Y-110025758D01*
X153377766Y-110025893D01*
X153299668Y-110026131D01*
X153253301Y-110026289D01*
X153181448Y-110026530D01*
X153109420Y-110026733D01*
X153073349Y-110026808D01*
X153037244Y-110026860D01*
X153001108Y-110026883D01*
X152964944Y-110026872D01*
X152928755Y-110026823D01*
X152892545Y-110026731D01*
X152856316Y-110026590D01*
X152820071Y-110026397D01*
X152783814Y-110026146D01*
X152747548Y-110025833D01*
X152711276Y-110025453D01*
X152675000Y-110025000D01*
X146617889Y-110145000D02*
X146917889Y-112845000D01*
X146192889Y-113670000D01*
X145717889Y-113795000D01*
X143517889Y-112320000D01*
X143417889Y-111820000D01*
X143642889Y-110970000D01*
X144142889Y-110420000D01*
X145142889Y-110120000D01*
X146617889Y-110145000D01*
G36*
X146617889Y-110145000D02*
G01*
X146917889Y-112845000D01*
X146192889Y-113670000D01*
X145717889Y-113795000D01*
X143517889Y-112320000D01*
X143417889Y-111820000D01*
X143642889Y-110970000D01*
X144142889Y-110420000D01*
X145142889Y-110120000D01*
X146617889Y-110145000D01*
G37*
X155600000Y-110425000D02*
X156100000Y-110975000D01*
X156325000Y-111825000D01*
X156225000Y-112325000D01*
X154025000Y-113800000D01*
X153550000Y-113675000D01*
X152825000Y-112850000D01*
X153125000Y-110150000D01*
X154600000Y-110125000D01*
X155600000Y-110425000D01*
G36*
X155600000Y-110425000D02*
G01*
X156100000Y-110975000D01*
X156325000Y-111825000D01*
X156225000Y-112325000D01*
X154025000Y-113800000D01*
X153550000Y-113675000D01*
X152825000Y-112850000D01*
X153125000Y-110150000D01*
X154600000Y-110125000D01*
X155600000Y-110425000D01*
G37*
X145867889Y-115470000D02*
X145867999Y-115459050D01*
X145868130Y-115448132D01*
X145868279Y-115437246D01*
X145868448Y-115426393D01*
X145868637Y-115415571D01*
X145868845Y-115404781D01*
X145869073Y-115394022D01*
X145869319Y-115383296D01*
X145869586Y-115372600D01*
X145869871Y-115361937D01*
X145870175Y-115351305D01*
X145870498Y-115340704D01*
X145870841Y-115330135D01*
X145871202Y-115319597D01*
X145871583Y-115309090D01*
X145871982Y-115298615D01*
X145872400Y-115288171D01*
X145872837Y-115277758D01*
X145873292Y-115267376D01*
X145873766Y-115257025D01*
X145874259Y-115246704D01*
X145874770Y-115236415D01*
X145875299Y-115226156D01*
X145875847Y-115215929D01*
X145876414Y-115205731D01*
X145876998Y-115195565D01*
X145877601Y-115185429D01*
X145878222Y-115175324D01*
X145878861Y-115165248D01*
X145879519Y-115155204D01*
X145880194Y-115145189D01*
X145880887Y-115135205D01*
X145881598Y-115125251D01*
X145882327Y-115115328D01*
X145883074Y-115105434D01*
X145883839Y-115095570D01*
X145884621Y-115085736D01*
X145885421Y-115075933D01*
X145886239Y-115066158D01*
X145887074Y-115056415D01*
X145887927Y-115046700D01*
X145888797Y-115037016D01*
X145889684Y-115027360D01*
X145890589Y-115017735D01*
X145891511Y-115008138D01*
X145892450Y-114998572D01*
X145893407Y-114989034D01*
X145894380Y-114979527D01*
X145895371Y-114970048D01*
X145896379Y-114960599D01*
X145897404Y-114951178D01*
X145898445Y-114941787D01*
X145899504Y-114932424D01*
X145900579Y-114923092D01*
X145901671Y-114913787D01*
X145902780Y-114904512D01*
X145903905Y-114895265D01*
X145905047Y-114886047D01*
X145906206Y-114876858D01*
X145907381Y-114867698D01*
X145908573Y-114858565D01*
X145909781Y-114849462D01*
X145911005Y-114840386D01*
X145912246Y-114831340D01*
X145913503Y-114822321D01*
X145914776Y-114813332D01*
X145916065Y-114804370D01*
X145917370Y-114795437D01*
X145918692Y-114786531D01*
X145920029Y-114777654D01*
X145921383Y-114768804D01*
X145922752Y-114759983D01*
X145924138Y-114751189D01*
X145925539Y-114742424D01*
X145926956Y-114733685D01*
X145928388Y-114724976D01*
X145929837Y-114716293D01*
X145931301Y-114707639D01*
X145932780Y-114699010D01*
X145934275Y-114690411D01*
X145935786Y-114681838D01*
X145937312Y-114673294D01*
X145938853Y-114664775D01*
X145940410Y-114656286D01*
X145941982Y-114647822D01*
X145943569Y-114639387D01*
X145945172Y-114630977D01*
X145946789Y-114622596D01*
X145948422Y-114614241D01*
X145950070Y-114605914D01*
X145951733Y-114597612D01*
X145953411Y-114589339D01*
X145955104Y-114581090D01*
X145956811Y-114572871D01*
X145958534Y-114564676D01*
X145960271Y-114556510D01*
X145962024Y-114548368D01*
X145963790Y-114540255D01*
X145965572Y-114532166D01*
X145967368Y-114524106D01*
X145969179Y-114516070D01*
X145971004Y-114508063D01*
X145972844Y-114500079D01*
X145974698Y-114492124D01*
X145976566Y-114484193D01*
X145978449Y-114476290D01*
X145980347Y-114468411D01*
X145982258Y-114460561D01*
X145984184Y-114452734D01*
X145986124Y-114444935D01*
X145988078Y-114437159D01*
X145990046Y-114429412D01*
X145992028Y-114421688D01*
X145994024Y-114413992D01*
X145996035Y-114406320D01*
X145998059Y-114398675D01*
X146000097Y-114391054D01*
X146002149Y-114383460D01*
X146004215Y-114375889D01*
X146006294Y-114368347D01*
X146008387Y-114360826D01*
X146010494Y-114353334D01*
X146012615Y-114345865D01*
X146014749Y-114338423D01*
X146016897Y-114331003D01*
X146019058Y-114323612D01*
X146021233Y-114316243D01*
X146023421Y-114308901D01*
X146025623Y-114301581D01*
X146027837Y-114294290D01*
X146030066Y-114287020D01*
X146032307Y-114279777D01*
X146034562Y-114272557D01*
X146036830Y-114265364D01*
X146039111Y-114258193D01*
X146041405Y-114251049D01*
X146043713Y-114243927D01*
X146046033Y-114236832D01*
X146048367Y-114229759D01*
X146050713Y-114222713D01*
X146053073Y-114215689D01*
X146055444Y-114208691D01*
X146057830Y-114201715D01*
X146060228Y-114194766D01*
X146062639Y-114187838D01*
X146065062Y-114180938D01*
X146067499Y-114174058D01*
X146069947Y-114167205D01*
X146072409Y-114160373D01*
X146074883Y-114153568D01*
X146077370Y-114146784D01*
X146079869Y-114140027D01*
X146082381Y-114133290D01*
X146084905Y-114126581D01*
X146087442Y-114119891D01*
X146089990Y-114113229D01*
X146092552Y-114106586D01*
X146095125Y-114099971D01*
X146097712Y-114093376D01*
X146100310Y-114086807D01*
X146102921Y-114080259D01*
X146105543Y-114073737D01*
X146108178Y-114067235D01*
X146110824Y-114060760D01*
X146113484Y-114054304D01*
X146116154Y-114047875D01*
X146118838Y-114041466D01*
X146121533Y-114035083D01*
X146124240Y-114028720D01*
X146126958Y-114022383D01*
X146129690Y-114016066D01*
X146132432Y-114009775D01*
X146135187Y-114003503D01*
X146137952Y-113997258D01*
X146140731Y-113991032D01*
X146143520Y-113984832D01*
X146146322Y-113978651D01*
X146149134Y-113972497D01*
X146151960Y-113966361D01*
X146154795Y-113960252D01*
X146157643Y-113954161D01*
X146160502Y-113948097D01*
X146163373Y-113942051D01*
X146166255Y-113936032D01*
X146169149Y-113930031D01*
X146172053Y-113924056D01*
X146174971Y-113918100D01*
X146177897Y-113912169D01*
X146180838Y-113906257D01*
X146183787Y-113900371D01*
X146186749Y-113894503D01*
X146189721Y-113888661D01*
X146192706Y-113882837D01*
X146195700Y-113877039D01*
X146201724Y-113865505D01*
X146207791Y-113854059D01*
X146213903Y-113842699D01*
X146220059Y-113831427D01*
X146226258Y-113820240D01*
X146232501Y-113809141D01*
X146238786Y-113798127D01*
X146245115Y-113787198D01*
X146251486Y-113776355D01*
X146257900Y-113765598D01*
X146264355Y-113754925D01*
X146270853Y-113744336D01*
X146277393Y-113733832D01*
X146283974Y-113723412D01*
X146290596Y-113713076D01*
X146297260Y-113702823D01*
X146303965Y-113692653D01*
X146310710Y-113682567D01*
X146317496Y-113672563D01*
X146324322Y-113662642D01*
X146331188Y-113652803D01*
X146338094Y-113643047D01*
X146345039Y-113633372D01*
X146352024Y-113623779D01*
X146359049Y-113614267D01*
X146366112Y-113604837D01*
X146373214Y-113595487D01*
X146380355Y-113586219D01*
X146387534Y-113577031D01*
X146394752Y-113567924D01*
X146402007Y-113558897D01*
X146409300Y-113549951D01*
X146416631Y-113541084D01*
X146423999Y-113532297D01*
X146431404Y-113523590D01*
X146438846Y-113514962D01*
X146446325Y-113506414D01*
X146453841Y-113497945D01*
X146461392Y-113489555D01*
X146468980Y-113481245D01*
X146476604Y-113473013D01*
X146484263Y-113464860D01*
X146491957Y-113456785D01*
X146499687Y-113448790D01*
X146507451Y-113440872D01*
X146515250Y-113433034D01*
X146523084Y-113425273D01*
X146530952Y-113417591D01*
X146538853Y-113409987D01*
X146546788Y-113402461D01*
X146554757Y-113395014D01*
X146562758Y-113387644D01*
X146570793Y-113380352D01*
X146578859Y-113373139D01*
X146586958Y-113366004D01*
X146595089Y-113358946D01*
X146603252Y-113351967D01*
X146611445Y-113345065D01*
X146619670Y-113338242D01*
X146627925Y-113331497D01*
X146636211Y-113324830D01*
X146644526Y-113318241D01*
X146652871Y-113311730D01*
X146661245Y-113305297D01*
X146669647Y-113298943D01*
X146678078Y-113292667D01*
X146686537Y-113286470D01*
X146695023Y-113280351D01*
X146703536Y-113274311D01*
X146712076Y-113268350D01*
X146720641Y-113262468D01*
X146729232Y-113256664D01*
X146737848Y-113250940D01*
X146746488Y-113245296D01*
X146755152Y-113239730D01*
X146763839Y-113234245D01*
X146772548Y-113228839D01*
X146781280Y-113223513D01*
X146790032Y-113218268D01*
X146798805Y-113213103D01*
X146807598Y-113208019D01*
X146816410Y-113203015D01*
X146825240Y-113198093D01*
X146834087Y-113193252D01*
X146842950Y-113188493D01*
X146851829Y-113183816D01*
X146860723Y-113179221D01*
X146869630Y-113174708D01*
X146878549Y-113170279D01*
X146887480Y-113165932D01*
X146896421Y-113161669D01*
X146905371Y-113157489D01*
X146914328Y-113153394D01*
X146923293Y-113149383D01*
X146932262Y-113145457D01*
X146941234Y-113141616D01*
X146950209Y-113137860D01*
X146959184Y-113134190D01*
X146968158Y-113130607D01*
X146977129Y-113127110D01*
X146986095Y-113123701D01*
X146995055Y-113120378D01*
X147004006Y-113117144D01*
X147012946Y-113113998D01*
X147021873Y-113110941D01*
X147030785Y-113107972D01*
X147039678Y-113105094D01*
X147048552Y-113102305D01*
X147057403Y-113099607D01*
X147066227Y-113096999D01*
X147075023Y-113094483D01*
X147083787Y-113092058D01*
X147092516Y-113089725D01*
X147101207Y-113087484D01*
X147109856Y-113085336D01*
X147118459Y-113083281D01*
X147127012Y-113081320D01*
X147135511Y-113079451D01*
X147143953Y-113077677D01*
X147152332Y-113075997D01*
X147160644Y-113074411D01*
X147168885Y-113072919D01*
X147177048Y-113071521D01*
X147185129Y-113070218D01*
X147193122Y-113069010D01*
X147201022Y-113067895D01*
X147204939Y-113067372D01*
X147208822Y-113066874D01*
X147212687Y-113066398D01*
X147216517Y-113065947D01*
X147220327Y-113065517D01*
X147224101Y-113065112D01*
X147227852Y-113064730D01*
X147231566Y-113064371D01*
X147235255Y-113064034D01*
X147238907Y-113063721D01*
X147242530Y-113063430D01*
X147246115Y-113063162D01*
X147249670Y-113062916D01*
X147253186Y-113062693D01*
X147256668Y-113062491D01*
X147260111Y-113062312D01*
X147263517Y-113062155D01*
X147266883Y-113062020D01*
X147270210Y-113061905D01*
X147273495Y-113061813D01*
X147276740Y-113061741D01*
X147279941Y-113061690D01*
X147283099Y-113061660D01*
X147286214Y-113061650D01*
X147289281Y-113061660D01*
X147292305Y-113061689D01*
X147295280Y-113061738D01*
X147298210Y-113061807D01*
X147301087Y-113061894D01*
X147303920Y-113061999D01*
X147306699Y-113062122D01*
X147309431Y-113062264D01*
X147312107Y-113062422D01*
X147314737Y-113062597D01*
X147317308Y-113062789D01*
X147319833Y-113062997D01*
X147322296Y-113063220D01*
X147324714Y-113063459D01*
X147327068Y-113063711D01*
X147329376Y-113063979D01*
X147331619Y-113064259D01*
X147333816Y-113064554D01*
X147335947Y-113064860D01*
X147338033Y-113065179D01*
X147340050Y-113065508D01*
X147342024Y-113065851D01*
X147343928Y-113066201D01*
X147345789Y-113066564D01*
X147347580Y-113066934D01*
X147349329Y-113067315D01*
X147351008Y-113067702D01*
X147352645Y-113068100D01*
X147354213Y-113068501D01*
X147355740Y-113068913D01*
X147357199Y-113069326D01*
X147358617Y-113069750D01*
X147359969Y-113070174D01*
X147361281Y-113070607D01*
X147362528Y-113071039D01*
X147363737Y-113071480D01*
X147364882Y-113071919D01*
X147365991Y-113072365D01*
X147367038Y-113072808D01*
X147368050Y-113073258D01*
X147369003Y-113073704D01*
X147369922Y-113074156D01*
X147370785Y-113074603D01*
X147371615Y-113075055D01*
X147372392Y-113075502D01*
X147373137Y-113075953D01*
X147373832Y-113076398D01*
X147374498Y-113076847D01*
X147375116Y-113077289D01*
X147375706Y-113077735D01*
X147376252Y-113078174D01*
X147376770Y-113078616D01*
X147377248Y-113079050D01*
X147377700Y-113079488D01*
X147378115Y-113079918D01*
X147378505Y-113080350D01*
X147378860Y-113080775D01*
X147379192Y-113081203D01*
X147379493Y-113081624D01*
X147379770Y-113082047D01*
X147380019Y-113082463D01*
X147380246Y-113082881D01*
X147380447Y-113083294D01*
X147380627Y-113083709D01*
X147380783Y-113084119D01*
X147380918Y-113084532D01*
X147381031Y-113084940D01*
X147381123Y-113085351D01*
X147381194Y-113085759D01*
X147381246Y-113086170D01*
X147381277Y-113086580D01*
X147381288Y-113086991D01*
X147381250Y-113087818D01*
X147381131Y-113088654D01*
X147380929Y-113089501D01*
X147380640Y-113090363D01*
X147380260Y-113091243D01*
X147379784Y-113092143D01*
X147379203Y-113093064D01*
X147378512Y-113094009D01*
X147377702Y-113094980D01*
X147376764Y-113095976D01*
X147375689Y-113097000D01*
X147374467Y-113098050D01*
X147373089Y-113099128D01*
X147371544Y-113100233D01*
X147369821Y-113101364D01*
X147367912Y-113102521D01*
X147365805Y-113103703D01*
X147363489Y-113104907D01*
X147360956Y-113106133D01*
X147358195Y-113107379D01*
X147355196Y-113108643D01*
X147351951Y-113109922D01*
X147348449Y-113111215D01*
X147344682Y-113112519D01*
X147340642Y-113113831D01*
X147336320Y-113115149D01*
X147331710Y-113116470D01*
X147326804Y-113117791D01*
X147321595Y-113119110D01*
X147317889Y-113120000D01*
X143367889Y-112070000D02*
X143367899Y-112060752D01*
X143367929Y-112051532D01*
X143367979Y-112042354D01*
X143368048Y-112033205D01*
X143368138Y-112024098D01*
X143368247Y-112015018D01*
X143368375Y-112005981D01*
X143368524Y-111996971D01*
X143368691Y-111988003D01*
X143368878Y-111979062D01*
X143369084Y-111970162D01*
X143369310Y-111961290D01*
X143369554Y-111952458D01*
X143369818Y-111943654D01*
X143370100Y-111934890D01*
X143370402Y-111926153D01*
X143370722Y-111917456D01*
X143371061Y-111908786D01*
X143371419Y-111900156D01*
X143371795Y-111891552D01*
X143372190Y-111882988D01*
X143372604Y-111874450D01*
X143373036Y-111865951D01*
X143373486Y-111857479D01*
X143373955Y-111849045D01*
X143374442Y-111840638D01*
X143374947Y-111832269D01*
X143375470Y-111823925D01*
X143376011Y-111815620D01*
X143376570Y-111807341D01*
X143377147Y-111799099D01*
X143377742Y-111790883D01*
X143378354Y-111782705D01*
X143378985Y-111774552D01*
X143379633Y-111766436D01*
X143380298Y-111758345D01*
X143380981Y-111750291D01*
X143381682Y-111742262D01*
X143382400Y-111734270D01*
X143383135Y-111726302D01*
X143383887Y-111718371D01*
X143384657Y-111710465D01*
X143385444Y-111702594D01*
X143386248Y-111694748D01*
X143387068Y-111686937D01*
X143387907Y-111679151D01*
X143388761Y-111671400D01*
X143389633Y-111663673D01*
X143390521Y-111655982D01*
X143391426Y-111648314D01*
X143392348Y-111640681D01*
X143393287Y-111633072D01*
X143394241Y-111625497D01*
X143395213Y-111617946D01*
X143396201Y-111610429D01*
X143397205Y-111602935D01*
X143398226Y-111595476D01*
X143399263Y-111588039D01*
X143400316Y-111580636D01*
X143401385Y-111573257D01*
X143402470Y-111565910D01*
X143403572Y-111558587D01*
X143404689Y-111551296D01*
X143405823Y-111544029D01*
X143406972Y-111536794D01*
X143408138Y-111529581D01*
X143409319Y-111522401D01*
X143410516Y-111515244D01*
X143411728Y-111508118D01*
X143412957Y-111501015D01*
X143414200Y-111493944D01*
X143415460Y-111486895D01*
X143416734Y-111479878D01*
X143418025Y-111472882D01*
X143419330Y-111465918D01*
X143420652Y-111458976D01*
X143421988Y-111452064D01*
X143423340Y-111445175D01*
X143424707Y-111438315D01*
X143426089Y-111431478D01*
X143427486Y-111424671D01*
X143428899Y-111417886D01*
X143430326Y-111411130D01*
X143431769Y-111404396D01*
X143433226Y-111397691D01*
X143434699Y-111391009D01*
X143436186Y-111384355D01*
X143437689Y-111377722D01*
X143439205Y-111371119D01*
X143440737Y-111364537D01*
X143442283Y-111357983D01*
X143443845Y-111351451D01*
X143445420Y-111344946D01*
X143447011Y-111338463D01*
X143448616Y-111332008D01*
X143450236Y-111325574D01*
X143451869Y-111319167D01*
X143453518Y-111312782D01*
X143455181Y-111306423D01*
X143456858Y-111300086D01*
X143458550Y-111293776D01*
X143460256Y-111287486D01*
X143461976Y-111281223D01*
X143463711Y-111274980D01*
X143465459Y-111268764D01*
X143467222Y-111262569D01*
X143468999Y-111256400D01*
X143470791Y-111250251D01*
X143472595Y-111244128D01*
X143474415Y-111238025D01*
X143476248Y-111231948D01*
X143478096Y-111225891D01*
X143479957Y-111219859D01*
X143481832Y-111213848D01*
X143483721Y-111207861D01*
X143485624Y-111201895D01*
X143487541Y-111195953D01*
X143489472Y-111190031D01*
X143491416Y-111184134D01*
X143493375Y-111178256D01*
X143495347Y-111172402D01*
X143497333Y-111166569D01*
X143499332Y-111160759D01*
X143501345Y-111154969D01*
X143503372Y-111149202D01*
X143505412Y-111143455D01*
X143507466Y-111137732D01*
X143509534Y-111132027D01*
X143511615Y-111126346D01*
X143513710Y-111120684D01*
X143515818Y-111115045D01*
X143517940Y-111109426D01*
X143520074Y-111103829D01*
X143522223Y-111098251D01*
X143524385Y-111092695D01*
X143526561Y-111087159D01*
X143528749Y-111081644D01*
X143530952Y-111076149D01*
X143533167Y-111070675D01*
X143535397Y-111065220D01*
X143537639Y-111059787D01*
X143539895Y-111054372D01*
X143542163Y-111048979D01*
X143544446Y-111043605D01*
X143546741Y-111038251D01*
X143549050Y-111032916D01*
X143551372Y-111027602D01*
X143553707Y-111022307D01*
X143556056Y-111017032D01*
X143558418Y-111011776D01*
X143560792Y-111006539D01*
X143563181Y-111001322D01*
X143565582Y-110996124D01*
X143567997Y-110990945D01*
X143570424Y-110985785D01*
X143572865Y-110980644D01*
X143575319Y-110975522D01*
X143577786Y-110970418D01*
X143580266Y-110965334D01*
X143582760Y-110960268D01*
X143585267Y-110955221D01*
X143587786Y-110950192D01*
X143590319Y-110945181D01*
X143592865Y-110940189D01*
X143595424Y-110935215D01*
X143597996Y-110930260D01*
X143600582Y-110925322D01*
X143603180Y-110920403D01*
X143605792Y-110915501D01*
X143608416Y-110910617D01*
X143611054Y-110905752D01*
X143613705Y-110900903D01*
X143616369Y-110896073D01*
X143619046Y-110891260D01*
X143621736Y-110886465D01*
X143624440Y-110881687D01*
X143627156Y-110876926D01*
X143629886Y-110872183D01*
X143632629Y-110867457D01*
X143635385Y-110862748D01*
X143638154Y-110858056D01*
X143640936Y-110853382D01*
X143643731Y-110848724D01*
X143646540Y-110844083D01*
X143649362Y-110839459D01*
X143652196Y-110834852D01*
X143655045Y-110830261D01*
X143657906Y-110825687D01*
X143660781Y-110821130D01*
X143663668Y-110816589D01*
X143666569Y-110812064D01*
X143669483Y-110807556D01*
X143672411Y-110803064D01*
X143675352Y-110798589D01*
X143678306Y-110794129D01*
X143681273Y-110789686D01*
X143684254Y-110785258D01*
X143687248Y-110780847D01*
X143690256Y-110776451D01*
X143693276Y-110772072D01*
X143696311Y-110767707D01*
X143699358Y-110763360D01*
X143702419Y-110759026D01*
X143705493Y-110754710D01*
X143711682Y-110746123D01*
X143717926Y-110737597D01*
X143724223Y-110729132D01*
X143730575Y-110720729D01*
X143736982Y-110712385D01*
X143743443Y-110704101D01*
X143749959Y-110695877D01*
X143756531Y-110687712D01*
X143763158Y-110679605D01*
X143769840Y-110671556D01*
X143776579Y-110663565D01*
X143783374Y-110655631D01*
X143790225Y-110647754D01*
X143797133Y-110639934D01*
X143804098Y-110632170D01*
X143811120Y-110624461D01*
X143818200Y-110616808D01*
X143825339Y-110609209D01*
X143832535Y-110601665D01*
X143839790Y-110594176D01*
X143847104Y-110586740D01*
X143854478Y-110579358D01*
X143861911Y-110572029D01*
X143869404Y-110564753D01*
X143876958Y-110557530D01*
X143884573Y-110550359D01*
X143892250Y-110543240D01*
X143899988Y-110536172D01*
X143907788Y-110529156D01*
X143915651Y-110522191D01*
X143923577Y-110515277D01*
X143931567Y-110508414D01*
X143939620Y-110501600D01*
X143947739Y-110494837D01*
X143955922Y-110488123D01*
X143964171Y-110481460D01*
X143972486Y-110474845D01*
X143980868Y-110468279D01*
X143989317Y-110461763D01*
X143997834Y-110455295D01*
X144006419Y-110448875D01*
X144015073Y-110442504D01*
X144023797Y-110436181D01*
X144032590Y-110429905D01*
X144041455Y-110423677D01*
X144050390Y-110417497D01*
X144059398Y-110411364D01*
X144068479Y-110405279D01*
X144077633Y-110399240D01*
X144086861Y-110393248D01*
X144096163Y-110387303D01*
X144105541Y-110381405D01*
X144114996Y-110375553D01*
X144124527Y-110369747D01*
X144134136Y-110363988D01*
X144143823Y-110358275D01*
X144153590Y-110352608D01*
X144163437Y-110346987D01*
X144173364Y-110341411D01*
X144183373Y-110335882D01*
X144193465Y-110330398D01*
X144203640Y-110324960D01*
X144213900Y-110319567D01*
X144224244Y-110314220D01*
X144234675Y-110308919D01*
X144245192Y-110303662D01*
X144255798Y-110298452D01*
X144266492Y-110293286D01*
X144277277Y-110288166D01*
X144288152Y-110283091D01*
X144299119Y-110278062D01*
X144310179Y-110273078D01*
X144321333Y-110268139D01*
X144332583Y-110263245D01*
X144343928Y-110258397D01*
X144355371Y-110253593D01*
X144366913Y-110248836D01*
X144378554Y-110244123D01*
X144390296Y-110239456D01*
X144402140Y-110234834D01*
X144414088Y-110230258D01*
X144426140Y-110225727D01*
X144438298Y-110221242D01*
X144450563Y-110216802D01*
X144462938Y-110212408D01*
X144475422Y-110208060D01*
X144488018Y-110203757D01*
X144500726Y-110199501D01*
X144513550Y-110195290D01*
X144526489Y-110191125D01*
X144539546Y-110187006D01*
X144552722Y-110182933D01*
X144566019Y-110178907D01*
X144579438Y-110174927D01*
X144592982Y-110170994D01*
X144606651Y-110167107D01*
X144620449Y-110163267D01*
X144634376Y-110159473D01*
X144648435Y-110155727D01*
X144662628Y-110152027D01*
X144676956Y-110148375D01*
X144691422Y-110144770D01*
X144706028Y-110141213D01*
X144720777Y-110137703D01*
X144735669Y-110134241D01*
X144750709Y-110130827D01*
X144765897Y-110127460D01*
X144781237Y-110124142D01*
X144796732Y-110120872D01*
X144812384Y-110117651D01*
X144828195Y-110114478D01*
X144844169Y-110111355D01*
X144860308Y-110108280D01*
X144876617Y-110105254D01*
X144893096Y-110102278D01*
X144909751Y-110099351D01*
X144926585Y-110096474D01*
X144943600Y-110093646D01*
X144960802Y-110090869D01*
X144978193Y-110088142D01*
X144995777Y-110085466D01*
X145013559Y-110082840D01*
X145031544Y-110080264D01*
X145049735Y-110077740D01*
X145068137Y-110075267D01*
X145086756Y-110072846D01*
X145105597Y-110070476D01*
X145124664Y-110068158D01*
X145143965Y-110065892D01*
X145163505Y-110063678D01*
X145183290Y-110061517D01*
X145203327Y-110059408D01*
X145223623Y-110057352D01*
X145244186Y-110055350D01*
X145265024Y-110053400D01*
X145286145Y-110051505D01*
X145307558Y-110049663D01*
X145329273Y-110047875D01*
X145351300Y-110046141D01*
X145373650Y-110044462D01*
X145396334Y-110042837D01*
X145419366Y-110041268D01*
X145442760Y-110039753D01*
X145466528Y-110038294D01*
X145490689Y-110036891D01*
X145515258Y-110035544D01*
X145540256Y-110034253D01*
X145565702Y-110033018D01*
X145591619Y-110031840D01*
X145618032Y-110030719D01*
X145644969Y-110029656D01*
X145672461Y-110028650D01*
X145700543Y-110027702D01*
X145729252Y-110026812D01*
X145758634Y-110025980D01*
X145788739Y-110025207D01*
X145819624Y-110024494D01*
X145851357Y-110023840D01*
X145884017Y-110023246D01*
X145917697Y-110022712D01*
X145952511Y-110022239D01*
X145988596Y-110021828D01*
X146026125Y-110021479D01*
X146065317Y-110021193D01*
X146106462Y-110020971D01*
X146149952Y-110020814D01*
X146196350Y-110020724D01*
X146246508Y-110020704D01*
X146301851Y-110020758D01*
X146365123Y-110020893D01*
X146443221Y-110021131D01*
X146489588Y-110021289D01*
X146561441Y-110021530D01*
X146633469Y-110021733D01*
X146669540Y-110021808D01*
X146705645Y-110021860D01*
X146741781Y-110021883D01*
X146777945Y-110021872D01*
X146814134Y-110021823D01*
X146850344Y-110021731D01*
X146886573Y-110021590D01*
X146922818Y-110021397D01*
X146959075Y-110021146D01*
X146995341Y-110020833D01*
X147031613Y-110020453D01*
X147067889Y-110020000D01*
D11*
G36*
X156475000Y-127900000D02*
G01*
X153475000Y-127900000D01*
X153475000Y-112075000D01*
X156475000Y-112075000D01*
X156475000Y-127900000D01*
G37*
G36*
X146267889Y-127895000D02*
G01*
X143267889Y-127895000D01*
X143267889Y-112070000D01*
X146267889Y-112070000D01*
X146267889Y-127895000D01*
G37*
D12*
%TO.C,D1*%
X145567889Y-103195000D03*
X148867889Y-103195000D03*
%TD*%
D13*
%TO.C,C1*%
X146942889Y-106120000D03*
X145042889Y-106120000D03*
%TD*%
D14*
%TO.C,R3*%
X148992889Y-97957500D03*
X148992889Y-99782500D03*
%TD*%
D15*
%TO.C,R2*%
X151055389Y-103420000D03*
X152880389Y-103420000D03*
%TD*%
D16*
%TO.C,U1*%
X150767889Y-105957500D03*
X149817889Y-105957500D03*
X148867889Y-105957500D03*
X148867889Y-108232500D03*
X150767889Y-108232500D03*
%TD*%
D17*
%TO.C,H2*%
X164617889Y-94595000D03*
%TD*%
%TO.C,H3*%
X135117889Y-130945000D03*
%TD*%
%TO.C,H4*%
X164617889Y-130920000D03*
%TD*%
D18*
%TO.C,J2*%
X152232889Y-94395000D03*
D19*
X149692889Y-94395000D03*
X147152889Y-94395000D03*
%TD*%
D20*
%TO.C,J1*%
X144785389Y-117070000D03*
X144785389Y-127230000D03*
X154945389Y-117070000D03*
X154945389Y-127230000D03*
%TD*%
D21*
%TO.C,R1*%
X152855389Y-111595000D03*
X146930389Y-111595000D03*
%TD*%
D17*
%TO.C,H1*%
X135117889Y-94620000D03*
%TD*%
D22*
%TO.C,C2*%
X151242889Y-100545000D03*
X153142889Y-100545000D03*
%TD*%
M02*
